<svg width="159" height="159" viewBox="0 0 159 159" fill="none" xmlns="http://www.w3.org/2000/svg">
<path d="M2.66478e-05 76.32C2.66478e-05 40.3383 2.6536e-05 22.3554 11.13 11.13C22.26 -0.0953733 40.2906 2.66478e-05 76.32 2.66478e-05H82.68C118.662 2.66478e-05 136.645 2.6536e-05 147.87 11.13C159.095 22.26 159 40.2906 159 76.32V82.68C159 118.662 159 136.645 147.87 147.87C136.74 159.095 118.709 159 82.68 159H76.32C40.3383 159 22.3554 159 11.13 147.87C-0.0953733 136.74 2.66478e-05 118.709 2.66478e-05 82.68V76.32Z" fill="black"/>
<path d="M79.6541 81.0677C92.9169 81.0677 103.729 70.2556 103.729 56.9928C103.729 43.73 92.9169 32.918 79.6541 32.918C66.2472 32.918 55.4351 43.73 55.4351 56.9928C55.4351 70.2556 66.2472 81.0677 79.6541 81.0677ZM79.6541 47.0457C85.1322 47.0457 89.6012 51.5147 89.6012 56.9928C89.6012 62.4709 85.1322 66.9399 79.6541 66.9399C74.176 66.9399 69.707 62.4709 69.707 56.9928C69.5629 51.5147 74.0318 47.0457 79.6541 47.0457Z" fill="white"/>
<path d="M89.3129 100.818C94.2144 99.6645 98.9717 97.7904 103.297 95.0514C106.612 93.0331 107.621 88.5642 105.459 85.2485C103.441 81.9328 98.9717 80.9236 95.656 83.086C85.8531 89.285 73.0228 89.285 63.2198 83.086C59.9041 81.0678 55.5793 81.9328 53.4169 85.2485C51.5428 88.5642 52.5519 92.889 55.8676 94.9072C60.1925 97.6463 64.9498 99.5204 69.8512 100.674L56.4443 114.081C53.7052 116.82 53.7052 121.289 56.4443 124.028C57.8859 125.469 59.6158 126.046 61.4899 126.046C63.364 126.046 65.0939 125.325 66.5355 124.028L79.7983 110.765L93.0611 124.028C95.8002 126.767 100.269 126.767 103.008 124.028C105.747 121.289 105.747 116.82 103.008 114.081L89.3129 100.818Z" fill="white"/>
<path d="M79.6541 81.0677C92.9169 81.0677 103.729 70.2556 103.729 56.9928C103.729 43.73 92.9169 32.918 79.6541 32.918C66.2471 32.918 55.4351 43.73 55.4351 56.9928C55.4351 70.2556 66.2471 81.0677 79.6541 81.0677ZM79.6541 47.0457C85.1322 47.0457 89.6012 51.5147 89.6012 56.9928C89.6012 62.4709 85.1322 66.9399 79.6541 66.9399C74.176 66.9399 69.707 62.4709 69.707 56.9928C69.5628 51.5147 74.0318 47.0457 79.6541 47.0457Z" fill="white"/>
<path d="M89.3129 100.818C94.2144 99.6645 98.9717 97.7904 103.296 95.0514C106.612 93.0331 107.621 88.5642 105.459 85.2485C103.441 81.9328 98.9717 80.9236 95.656 83.086C85.853 89.285 73.0227 89.285 63.2198 83.086C59.9041 81.0678 55.5793 81.9328 53.4169 85.2485C51.5428 88.5642 52.5519 92.889 55.8676 94.9072C60.1924 97.6463 64.9497 99.5204 69.8512 100.674L56.4442 114.081C53.7052 116.82 53.7052 121.289 56.4442 124.028C57.8859 125.469 59.6158 126.046 61.4899 126.046C63.364 126.046 65.0939 125.325 66.5355 124.028L79.7983 110.765L93.0611 124.028C95.8001 126.767 100.269 126.767 103.008 124.028C105.747 121.289 105.747 116.82 103.008 114.081L89.3129 100.818Z" fill="white"/>
</svg>
