<?xml version="1.0" encoding="UTF-8" standalone="no"?>
<svg
   version="1.1"
   width="175"
   height="184.99999999999997"
   viewBox="0 -14.285714285714278 500.00000000000006 528.5714285714286"
   xml:space="preserve"
   id="svg46238"
   sodipodi:docname="dstu.svg"
   inkscape:version="1.2.2 (b0a8486541, 2022-12-01)"
   xmlns:inkscape="http://www.inkscape.org/namespaces/inkscape"
   xmlns:sodipodi="http://sodipodi.sourceforge.net/DTD/sodipodi-0.dtd"
   xmlns="http://www.w3.org/2000/svg"
   xmlns:svg="http://www.w3.org/2000/svg"><sodipodi:namedview
   id="namedview46240"
   pagecolor="#ffffff"
   bordercolor="#000000"
   borderopacity="0.25"
   inkscape:showpageshadow="2"
   inkscape:pageopacity="0.0"
   inkscape:pagecheckerboard="0"
   inkscape:deskcolor="#d1d1d1"
   showgrid="false"
   inkscape:zoom="3.1609584"
   inkscape:cx="25.62514"
   inkscape:cy="78.140858"
   inkscape:window-width="1920"
   inkscape:window-height="1007"
   inkscape:window-x="0"
   inkscape:window-y="0"
   inkscape:window-maximized="1"
   inkscape:current-layer="svg46238" />
<desc
   id="desc46231">Created with Fabric.js 4.6.0</desc>
<defs
   id="defs46233">
</defs>
<g
   transform="matrix(1 0 0 1 250 250)"
   id="g46541"
   style="fill:none;fill-opacity:1;stroke:#fcd017;stroke-opacity:1;stroke-width:5.71428571;stroke-dasharray:none">
<path
   style="stroke:#ffffff;stroke-width:5.71428571;stroke-dasharray:none;stroke-linecap:butt;stroke-dashoffset:0;stroke-linejoin:miter;stroke-miterlimit:4;fill:#ffffff;fill-rule:nonzero;opacity:1;fill-opacity:1;stroke-opacity:1"
   d="m 90.85604,119.32093 c 1.97597,-1.0721 141.85559,-72.14019 141.99066,-72.14019 0.18172,0 139.89718,70.99098 141.47334,71.88509 l 0.88607,0.50307 -142.39948,-0.004 C 112.80258,119.56084 90.477,119.52315 90.85311,119.32184 Z"
   transform="translate(-233,-247.11)"
   id="path46647" /><path
   style="stroke:none;stroke-width:5.71428571;stroke-dasharray:none;stroke-linecap:butt;stroke-dashoffset:0;stroke-linejoin:miter;stroke-miterlimit:4;fill:none;fill-rule:nonzero;opacity:1;fill-opacity:1;stroke-opacity:1"
   d="m 371.39306,132.35147 v -2.12951 h 19.87443 19.87443 v 2.12951 2.12951 h -19.87443 -19.87443 z"
   transform="translate(-233,-247.11)"
   id="path46645" /><path
   style="stroke:none;stroke-width:5.71428571;stroke-dasharray:none;stroke-linecap:butt;stroke-dashoffset:0;stroke-linejoin:miter;stroke-miterlimit:4;fill:none;fill-rule:nonzero;opacity:1;fill-opacity:1;stroke-opacity:1"
   d="m 54.65734,132.35147 v -2.12951 h 19.78582 19.78582 v 2.12951 2.12951 H 74.44316 54.65734 Z"
   transform="translate(-233,-247.11)"
   id="path46643" /><path
   style="stroke:none;stroke-width:5.71428571;stroke-dasharray:none;stroke-linecap:butt;stroke-dashoffset:0;stroke-linejoin:miter;stroke-miterlimit:4;fill:none;fill-rule:nonzero;opacity:1;fill-opacity:1;stroke-opacity:1"
   d="m 54.65734,294.6193 v -2.0409 H 232.89817 411.139 v 2.0409 2.0409 H 232.89817 54.65734 Z"
   transform="translate(-233,-247.11)"
   id="path46631" /><path
   style="stroke:#fcd017;stroke-width:5.71428571;stroke-dasharray:none;stroke-linecap:butt;stroke-dashoffset:0;stroke-linejoin:miter;stroke-miterlimit:4;fill:none;fill-rule:nonzero;opacity:1;fill-opacity:1;stroke-opacity:1"
   d="m 241.5048,418.91523 c 4.73941,-0.21875 9.95829,-0.61906 14.01755,-1.07226 38.28722,-4.29222 74.30388,-19.34805 104.43127,-43.65136 22.81059,-18.40223 41.52074,-41.80003 54.36442,-67.98457 5.6662,-11.54836 9.45973,-21.29596 12.88005,-33.08247 3.98871,-13.74706 6.36493,-27.24762 7.54981,-42.91403 0.30315,-4.00725 0.41544,-18.26193 0.18188,-22.97862 C 432.58641,160.08517 414.7844,116.75221 383.27427,81.5097 380.11508,77.97713 371.44215,69.30969 368.01714,66.26584 334.47527,36.44223 294.39371,19.14731 249.39673,15.07703 238.41784,14.08436 225.8916,14.05181 214.79589,14.98809 174.27708,18.40419 135.90129,34.21452 104.15888,60.56306 97.87309,65.78165 89.19048,74.05325 83.85921,79.8982 68.05277,97.233 55.64323,116.45219 46.67166,137.50058 c -15.20084,35.6537 -19.80512,75.25927 -13.21615,113.68154 5.14493,30.00644 17.0877,58.54881 34.89875,83.41287 24.58619,34.32116 59.70317,60.38899 99.42111,73.80302 18.8213,6.35646 36.98708,9.69363 57.57946,10.57889 3.08037,0.13122 12.75408,0.0974 16.14706,-0.0603 z"
   transform="translate(-233,-247.11)"
   id="path46623" /><path
   style="stroke:#fcd017;stroke-width:5.71428571;stroke-dasharray:none;stroke-linecap:butt;stroke-dashoffset:0;stroke-linejoin:miter;stroke-miterlimit:4;fill:none;fill-rule:nonzero;opacity:1;fill-opacity:1;stroke-opacity:1"
   d="m 225.21228,435.43313 c -2.52126,-0.10182 -3.28943,-0.18652 -3.41184,-0.38266 -0.0885,-0.13969 -0.16265,-1.71 -0.1632,-3.48978 -0.004,-3.21082 -0.005,-3.23462 -0.40121,-3.31787 -0.40144,-0.0837 -7.88978,-0.63835 -8.57484,-0.63433 -0.33544,6.6e-4 -0.43286,0.30268 -1.06245,3.30469 -0.45165,2.1485 -0.77891,3.33696 -0.94119,3.39797 -0.58272,0.22368 -11.69174,-1.32318 -17.94542,-2.49799 -2.80105,-0.52662 -3.10291,-0.61899 -3.07061,-0.9315 0.36364,-3.58759 0.61966,-6.6726 0.55866,-6.7336 -0.0424,-0.0424 -2.06353,-0.48548 -4.48712,-0.98719 -3.13586,-0.64396 -4.44484,-0.84863 -4.53031,-0.70778 -0.0693,0.11129 -0.59586,1.55262 -1.1699,3.20692 -0.60071,1.72439 -1.14135,3.00649 -1.26756,3.00649 -0.32172,0 -3.6992,-0.92656 -7.76834,-2.12948 -3.151,-0.93213 -11.96754,-3.83545 -12.12576,-3.99367 -0.0329,-0.0329 0.30692,-1.42093 0.75455,-3.08087 0.44763,-1.66288 0.81505,-3.12613 0.81487,-3.25232 -3.3e-4,-0.20585 -8.46339,-3.63942 -8.59343,-3.48537 -0.0279,0.0328 -0.69954,1.25814 -1.49551,2.72163 -0.79303,1.46348 -1.51024,2.76386 -1.59314,2.88973 -0.11221,0.17625 -0.91843,-0.11119 -3.41568,-1.20719 -4.82242,-2.12001 -15.46242,-7.44635 -15.36359,-7.68899 0.0465,-0.11209 0.66184,-1.58429 1.36926,-3.27093 0.70449,-1.68663 1.25309,-3.09407 1.21554,-3.12731 -0.22863,-0.20565 -7.91792,-4.36204 -8.06096,-4.35656 -0.0937,0.005 -1.00596,1.17 -2.02267,2.59095 -1.01671,1.42095 -1.94374,2.6187 -2.05942,2.66135 -0.23222,0.0885 -3.60697,-1.98971 -8.0668,-4.96681 -3.07568,-2.0511 -9.51568,-6.61177 -9.65155,-6.83187 -0.0427,-0.0704 0.59211,-1.30088 1.41598,-2.73531 0.82094,-1.4315 1.49555,-2.67015 1.49555,-2.74932 0,-0.14009 -6.29053,-5.76047 -6.56145,-5.86301 -0.11245,-0.0423 -1.87381,1.47666 -4.65491,4.01249 l -0.48021,0.43828 -2.00372,-1.69188 c -4.29204,-3.62551 -13.80316,-12.51148 -13.80316,-12.89435 0,-0.0648 1.03876,-1.22041 2.30672,-2.56789 1.26796,-1.34749 2.30672,-2.50784 2.30672,-2.5776 0,-0.16345 -5.7698,-5.8711 -5.93687,-5.8711 -0.06971,0 -1.23454,0.91811 -2.58688,2.0409 -1.35527,1.12279 -2.53948,2.0409 -2.6332,2.0409 -0.09372,0 -0.39658,-0.26558 -0.67173,-0.59111 -0.27514,-0.32554 -1.72465,-2.00911 -3.2208,-3.74647 -3.03905,-3.5272 -6.02975,-7.23205 -8.81264,-10.92391 l -1.86019,-2.46973 2.92687,-2.24564 c 1.61154,-1.2348 2.92687,-2.28302 2.92687,-2.32939 0,-0.10696 -4.39841,-6.06776 -4.79063,-6.49579 -0.28034,-0.30678 -0.43367,-0.23818 -3.36434,1.46348 -1.68732,0.98247 -3.09365,1.78444 -3.12194,1.78444 -0.26547,0 -7.03184,-11.10948 -9.6604,-15.86225 -1.56103,-2.82003 -1.63979,-3.01059 -1.33198,-3.23492 0.18113,-0.13092 1.63065,-0.89927 3.22082,-1.70545 1.59311,-0.80619 2.89447,-1.5277 2.89778,-1.59913 0.0042,-0.25611 -4.08183,-8.2945 -4.21283,-8.29032 -0.07391,7.2e-4 -1.56093,0.67967 -3.30777,1.50462 -1.74683,0.82494 -3.23343,1.46359 -3.30388,1.42085 -0.22386,-0.13929 -3.52327,-7.62801 -5.2379,-11.88778 -7.8094,-19.40749 -12.70385,-39.60989 -14.62328,-60.32921 -0.71822,-7.76784 -0.81035,-10.09294 -0.80218,-20.6719 0.0053,-11.11421 0.15343,-14.23663 1.07198,-22.89001 C 22.10735,139.68933 48.6605,89.19286 90.8707,52.75384 122.21444,25.69347 160.96156,7.985 201.50771,2.18751 c 12.14886,-1.7379 21.33833,-2.32027 34.1578,-2.16287 8.076,0.09794 12.37276,0.32582 19.33985,1.02114 33.45378,3.34605 65.91594,14.64639 94.65401,32.94689 20.92795,13.32769 39.97355,30.70589 55.3705,50.52581 12.3857,15.94192 22.76429,34.07889 30.26207,52.87764 12.46588,31.25909 17.43689,64.78407 14.62272,98.65619 -1.83685,22.13103 -7.05946,43.69758 -15.56951,64.32226 -1.38886,3.36509 -4.36223,10.06189 -4.71618,10.62094 -0.12106,0.19095 -0.85203,-0.0877 -3.46273,-1.31478 -1.96681,-0.92676 -3.37343,-1.49143 -3.46309,-1.39405 -0.19115,0.20092 -3.91462,8.02999 -3.91462,8.23043 0,0.0796 1.43929,0.8763 3.19647,1.77051 l 3.19648,1.62558 -0.42857,0.7453 c -0.23688,0.40993 -1.00617,1.78408 -1.71052,3.05204 -1.85855,3.34074 -5.3729,9.15176 -7.48388,12.3686 l -1.82733,2.78727 -2.3063,-1.33764 c -1.26773,-0.73614 -2.63794,-1.53237 -3.04684,-1.76648 l -0.74052,-0.42885 -2.49804,3.36389 c -1.37451,1.84985 -2.49365,3.4255 -2.48893,3.50405 0.005,0.0786 0.85753,0.77873 1.89614,1.56082 1.03861,0.78209 2.3065,1.74329 2.81917,2.13959 l 0.93212,0.72189 -1.87884,2.47384 c -3.38333,4.45009 -6.91078,8.73333 -11.11919,13.50562 l -1.59375,1.8078 -0.63316,-0.50264 c -0.34882,-0.27529 -1.46815,-1.18818 -2.49227,-2.02702 l -1.85913,-1.52435 -0.80202,0.7499 c -0.4423,0.41083 -1.81708,1.74289 -3.05638,2.95849 l -2.25143,2.20861 2.32963,2.46499 2.32962,2.465 -2.91656,2.79519 c -3.75208,3.59722 -6.5421,6.13694 -9.74814,8.8783 -1.41607,1.21136 -2.74898,2.35792 -2.96333,2.54887 l -0.39079,0.34559 -2.39911,-2.1631 -2.39911,-2.16309 -3.35506,2.96385 -3.35506,2.96385 1.39714,2.43701 c 0.76844,1.34137 1.39715,2.51565 1.39715,2.60951 0,0.49434 -16.98526,11.94324 -17.71791,11.94324 -0.0975,0 -0.98749,-1.11822 -1.97638,-2.48394 -0.99183,-1.36573 -1.8453,-2.48394 -1.90051,-2.48394 -0.24151,0 -7.90296,4.33882 -7.96873,4.51172 -0.0416,0.10706 0.44677,1.42097 1.08136,2.91782 0.63459,1.49977 1.15592,2.81901 1.15592,2.93194 0,0.21501 -7.99218,4.28707 -11.88804,6.05393 -2.96418,1.34629 -6.60727,2.92151 -6.75194,2.92151 -0.0649,0 -0.68446,-1.05789 -1.37512,-2.35249 -0.69359,-1.29167 -1.36149,-2.48364 -1.49072,-2.64622 -0.20988,-0.26628 -0.61445,-0.14432 -4.46437,1.36516 -2.3294,0.91297 -4.2538,1.68268 -4.27709,1.71437 -0.0237,0.0288 0.31151,1.36049 0.74106,2.95482 0.42955,1.59433 0.75901,2.92597 0.72692,2.95463 -0.15872,0.15329 -9.55279,3.20624 -12.47882,4.05814 -4.44142,1.29104 -7.55391,2.11112 -7.65098,2.01698 -0.0421,-0.0421 -0.52707,-1.37083 -1.07729,-2.95457 -0.78702,-2.25966 -1.06223,-2.86144 -1.28182,-2.80495 -0.15409,0.0413 -2.17664,0.46213 -4.49626,0.941 l -4.21325,0.86694 v 0.55869 c 0,0.30729 0.12499,1.73421 0.2749,3.17389 0.14985,1.43967 0.24674,2.64623 0.21048,2.67961 -0.0979,0.0979 -6.45447,1.23945 -9.71227,1.74323 -2.43682,0.37739 -5.45667,0.77748 -10.77394,1.42204 -0.87157,0.10676 -0.75531,0.36812 -1.5653,-3.5374 -0.26154,-1.26796 -0.53536,-2.36783 -0.60516,-2.44575 -0.11099,-0.12035 -5.55408,0.21401 -8.30492,0.50775 l -0.93184,0.0985 -7.3e-4,2.42757 c -6.5e-4,1.33355 -0.0508,2.71705 -0.10775,3.07153 -0.0941,0.57768 -0.17622,0.65688 -0.75097,0.75054 -1.05782,0.17262 -14.22719,0.26951 -17.7398,0.12962 z"
   id="path46621"
   transform="translate(-233,-247.11)" /><g
   id="g47879"
   style="fill:#ffffff;fill-opacity:1;stroke:none"><path
     style="stroke:none;stroke-width:5.71428571;stroke-dasharray:none;stroke-linecap:butt;stroke-dashoffset:0;stroke-linejoin:miter;stroke-miterlimit:4;fill:#ffffff;fill-rule:nonzero;opacity:1;fill-opacity:1;stroke-opacity:1"
     d="m 436.11458,371.14129 c -0.46079,-0.31732 -0.81606,-0.63802 -0.79274,-0.70874 0.0237,-0.0707 4.6732,-6.9863 10.3308,-15.36853 l 10.28866,-15.23778 0.93628,0.62033 c 0.51335,0.34073 0.93597,0.67058 0.93264,0.72779 -0.004,0.21381 -20.49542,30.42979 -20.6759,30.48568 -0.10172,0.0321 -0.55895,-0.20435 -1.01974,-0.52167 z"
     transform="translate(-233,-247.11)"
     id="path46721" /><path
     style="stroke:none;stroke-width:5.71428571;stroke-dasharray:none;stroke-linecap:butt;stroke-dashoffset:0;stroke-linejoin:miter;stroke-miterlimit:4;fill:#ffffff;fill-rule:nonzero;opacity:1;fill-opacity:1;stroke-opacity:1"
     d="M 28.43485,371.2288 C 27.32149,369.63577 8.16846,341.20365 8.16846,341.14329 c 0,-0.0413 0.42804,-0.35501 0.94989,-0.70336 l 0.94989,-0.62938 10.23422,15.15442 c 5.62941,8.3361 10.27611,15.26225 10.3273,15.39664 0.05661,0.14965 -0.2338,0.45219 -0.77411,0.79764 -0.47608,0.3071 -0.91411,0.55837 -0.97374,0.55837 -0.0567,0 -0.26021,-0.21925 -0.44706,-0.48881 z"
     transform="translate(-233,-247.11)"
     id="path46719" /><path
     style="stroke:none;stroke-width:5.71428571;stroke-dasharray:none;stroke-linecap:butt;stroke-dashoffset:0;stroke-linejoin:miter;stroke-miterlimit:4;fill:#ffffff;fill-rule:nonzero;opacity:1;fill-opacity:1;stroke-opacity:1"
     d="m 418.68233,382.24368 c -0.4888,-0.25148 -0.91362,-0.48008 -0.9463,-0.50845 -0.051,-0.0458 10.38738,-22.57312 10.5511,-22.77414 0.0796,-0.098 1.54332,0.47529 1.88734,0.74022 0.25128,0.19175 -0.32695,1.52804 -5.02274,11.57135 -2.91736,6.24454 -5.36813,11.37069 -5.44354,11.39305 -0.0784,0.0227 -0.53997,-0.16768 -1.02585,-0.41912 z"
     transform="translate(-233,-247.11)"
     id="path46717" /><path
     style="stroke:none;stroke-width:5.71428571;stroke-dasharray:none;stroke-linecap:butt;stroke-dashoffset:0;stroke-linejoin:miter;stroke-miterlimit:4;fill:#ffffff;fill-rule:nonzero;opacity:1;fill-opacity:1;stroke-opacity:1"
     d="m 40.92794,371.40615 c -2.90276,-6.22129 -5.27949,-11.38896 -5.28358,-11.48243 -0.0051,-0.17675 1.93467,-1.08581 2.05537,-0.964 0.10745,0.11139 10.56908,22.56454 10.56908,22.68565 0,0.0893 -1.84137,1.07141 -2.01317,1.07141 -0.02851,0 -2.42788,-5.08934 -5.33064,-11.31063 z"
     transform="translate(-233,-247.11)"
     id="path46715" /><path
     style="stroke:none;stroke-width:5.71428571;stroke-dasharray:none;stroke-linecap:butt;stroke-dashoffset:0;stroke-linejoin:miter;stroke-miterlimit:4;fill:#ffffff;fill-rule:nonzero;opacity:1;fill-opacity:1;stroke-opacity:1"
     d="m 411.85077,384.3931 c -0.53621,-0.22348 -0.96466,-0.51218 -0.95078,-0.64231 0.0323,-0.299 8.04299,-19.17207 8.21995,-19.36307 0.12116,-0.13062 2.13493,0.64357 2.13493,0.82081 0,0.16708 -8.1924,19.37681 -8.30818,19.47934 -0.0658,0.0602 -0.5597,-0.0742 -1.09592,-0.29771 z"
     transform="translate(-233,-247.11)"
     id="path46713" /><path
     style="stroke:none;stroke-width:5.71428571;stroke-dasharray:none;stroke-linecap:butt;stroke-dashoffset:0;stroke-linejoin:miter;stroke-miterlimit:4;fill:#ffffff;fill-rule:nonzero;opacity:1;fill-opacity:1;stroke-opacity:1"
     d="m 52.82045,384.26541 c -0.13444,-0.31606 -1.93851,-4.56307 -4.01198,-9.44524 -2.07347,-4.87927 -3.83966,-9.05403 -3.92423,-9.27399 -0.14055,-0.36755 -0.06532,-0.44274 0.84824,-0.84769 0.55373,-0.24301 1.06728,-0.38167 1.14579,-0.30316 0.13088,0.13092 8.31364,19.30146 8.31364,19.47838 0,0.0459 -0.29868,0.20948 -0.66602,0.36419 -1.52346,0.64856 -1.44065,0.64809 -1.70544,0.0276 z"
     transform="translate(-233,-247.11)"
     id="path46711" /><path
     style="stroke:none;stroke-width:5.71428571;stroke-dasharray:none;stroke-linecap:butt;stroke-dashoffset:0;stroke-linejoin:miter;stroke-miterlimit:4;fill:#ffffff;fill-rule:nonzero;opacity:1;fill-opacity:1;stroke-opacity:1"
     d="m 430.12708,391.85517 -0.78342,-0.79774 0.90345,-0.93159 c 0.49778,-0.51237 8.31286,-8.67668 17.36783,-18.14193 9.05498,-9.46525 16.5526,-17.23323 16.65977,-17.26088 0.10716,-0.0277 0.54021,0.30255 0.96034,0.73151 L 466,356.23659 448.56179,374.44766 c -9.59071,10.01492 -17.48511,18.21108 -17.54474,18.21108 -0.0567,0 -0.45733,-0.35911 -0.88996,-0.79772 z"
     transform="translate(-233,-247.11)"
     id="path46709" /><path
     style="stroke:none;stroke-width:5.71428571;stroke-dasharray:none;stroke-linecap:butt;stroke-dashoffset:0;stroke-linejoin:miter;stroke-miterlimit:4;fill:#ffffff;fill-rule:nonzero;opacity:1;fill-opacity:1;stroke-opacity:1"
     d="M 17.43722,374.42868 0,356.2084 0.75464,355.43967 c 0.41476,-0.42353 0.85245,-0.74585 0.97003,-0.71819 0.3026,0.0694 34.83331,36.1671 34.83331,36.41416 0,0.16768 -1.45941,1.52402 -1.63092,1.51451 -0.0288,-6.5e-4 -7.90259,-8.20176 -17.48984,-18.22147 z"
     transform="translate(-233,-247.11)"
     id="path46707" /><path
     style="stroke:none;stroke-width:5.71428571;stroke-dasharray:none;stroke-linecap:butt;stroke-dashoffset:0;stroke-linejoin:miter;stroke-miterlimit:4;fill:#ffffff;fill-rule:nonzero;opacity:1;fill-opacity:1;stroke-opacity:1"
     d="m 417.23812,396.37575 c -1.15513,-0.24744 -2.15369,-1.26797 -2.55403,-2.60492 -0.20455,-0.68057 -0.18128,-0.86708 0.26507,-2.12951 1.83115,-5.19526 5.6053,-9.3814 12.16258,-13.50037 2.42397,-1.52348 6.21131,-3.48148 6.21131,-3.21517 0,0.40054 -1.2626,4.28291 -1.97083,6.06242 -0.99666,2.50182 -2.44264,5.31226 -3.71843,7.21772 -1.9479,2.9124 -5.13461,5.946 -7.82461,7.45162 -1.25381,0.70299 -1.85978,0.87147 -2.56815,0.71822 z"
     transform="translate(-233,-247.11)"
     id="path46705" /><path
     style="stroke:none;stroke-width:5.71428571;stroke-dasharray:none;stroke-linecap:butt;stroke-dashoffset:0;stroke-linejoin:miter;stroke-miterlimit:4;fill:#ffffff;fill-rule:nonzero;opacity:1;fill-opacity:1;stroke-opacity:1"
     d="m 47.54604,396.31082 c -0.91419,-0.32143 -2.66991,-1.42127 -4.12961,-2.59094 -3.30342,-2.64249 -5.9423,-6.25788 -8.0199,-10.97434 -0.75899,-1.72343 -2.74021,-7.38691 -2.74021,-7.83312 0,-0.36862 4.80041,2.23734 7.7444,4.20413 5.00479,3.34611 8.35623,7.00469 10.09783,11.02053 1.20263,2.77705 1.21188,3.77394 0.04665,5.09892 -0.92352,1.05327 -1.97609,1.43029 -2.99623,1.0719 z"
     transform="translate(-233,-247.11)"
     id="path46703" /><path
     style="stroke:none;stroke-width:5.71428571;stroke-dasharray:none;stroke-linecap:butt;stroke-dashoffset:0;stroke-linejoin:miter;stroke-miterlimit:4;fill:#ffffff;fill-rule:nonzero;opacity:1;fill-opacity:1;stroke-opacity:1"
     d="m 64.81063,395.53727 c -0.28915,-0.85321 -2.30251,-6.74295 -4.47414,-13.08571 -2.17163,-6.34275 -3.95703,-11.64521 -3.97015,-11.78062 -0.01883,-0.22348 1.94294,-1.04408 2.10218,-0.88063 0.09744,0.0982 9.14829,26.64545 9.10039,26.68301 -0.12666,0.0975 -1.82604,0.61898 -2.01285,0.61898 -0.12083,0 -0.45628,-0.69889 -0.74542,-1.5521 z"
     transform="translate(-233,-247.11)"
     id="path46701" /><path
     style="stroke:none;stroke-width:5.71428571;stroke-dasharray:none;stroke-linecap:butt;stroke-dashoffset:0;stroke-linejoin:miter;stroke-miterlimit:4;fill:#ffffff;fill-rule:nonzero;opacity:1;fill-opacity:1;stroke-opacity:1"
     d="m 399.51969,396.83885 c -0.58657,-0.21421 -1.04936,-0.46552 -1.03427,-0.55839 0.0505,-0.26961 8.98006,-26.42148 9.05379,-26.50706 0.0846,-0.10302 1.99993,0.54923 2.10599,0.71729 0.0646,0.10262 -8.88272,26.58549 -9.0222,26.7064 -0.0227,0.0187 -0.51675,-0.14402 -1.10039,-0.35826 z"
     transform="translate(-233,-247.11)"
     id="path46699" /><path
     style="stroke:none;stroke-width:5.71428571;stroke-dasharray:none;stroke-linecap:butt;stroke-dashoffset:0;stroke-linejoin:miter;stroke-miterlimit:4;fill:#ffffff;fill-rule:nonzero;opacity:1;fill-opacity:1;stroke-opacity:1"
     d="m 423.41666,410.51884 c -0.40923,-0.41504 -0.74113,-0.84306 -0.74113,-0.94986 0,-0.10686 8.80298,-8.21552 19.56284,-18.02035 10.75986,-9.80482 20.02454,-18.24914 20.59178,-18.7661 l 1.02601,-0.94046 0.45271,0.42385 c 0.25088,0.23295 0.60594,0.63462 0.79224,0.89513 l 0.33954,0.47127 -19.829,18.06683 c -10.90521,9.93575 -20.19598,18.4062 -20.63996,18.8179 l -0.81097,0.75106 z"
     transform="translate(-233,-247.11)"
     id="path46697" /><path
     style="stroke:none;stroke-width:5.71428571;stroke-dasharray:none;stroke-linecap:butt;stroke-dashoffset:0;stroke-linejoin:miter;stroke-miterlimit:4;fill:#ffffff;fill-rule:nonzero;opacity:1;fill-opacity:1;stroke-opacity:1"
     d="M 21.17495,392.43734 0.55528,373.62023 1.28692,372.75312 c 0.40138,-0.47604 0.79643,-0.84726 0.87529,-0.81975 0.12075,0.0416 32.44217,29.43596 39.14318,35.59801 l 2.18974,2.0131 -0.75475,0.82526 c -0.41482,0.45288 -0.79707,0.83886 -0.8488,0.85352 -0.05173,0.0148 -9.3751,-8.43917 -20.71372,-18.78885 z"
     transform="translate(-233,-247.11)"
     id="path46695" /><path
     style="stroke:none;stroke-width:5.71428571;stroke-dasharray:none;stroke-linecap:butt;stroke-dashoffset:0;stroke-linejoin:miter;stroke-miterlimit:4;fill:#ffffff;fill-rule:nonzero;opacity:1;fill-opacity:1;stroke-opacity:1"
     d="m 403.53762,411.22978 c -0.85269,-0.32152 -1.75229,-1.24827 -1.96723,-2.02332 -0.27042,-0.97419 -0.22881,-3.49048 0.0878,-5.30337 0.59127,-3.38395 1.99473,-6.62193 4.51969,-10.41082 1.50454,-2.25623 4.11009,-5.66128 4.41781,-5.76844 0.27062,-0.0937 0.6284,4.08219 0.6245,7.32607 -0.004,4.35751 -0.50728,7.19901 -1.86001,10.51385 -0.73637,1.80336 -2.7719,5.02425 -3.45695,5.47511 -0.57385,0.37719 -1.64068,0.46188 -2.36271,0.19095 z"
     transform="translate(-233,-247.11)"
     id="path46693" /><path
     style="stroke:none;stroke-width:5.71428571;stroke-dasharray:none;stroke-linecap:butt;stroke-dashoffset:0;stroke-linejoin:miter;stroke-miterlimit:4;fill:#ffffff;fill-rule:nonzero;opacity:1;fill-opacity:1;stroke-opacity:1"
     d="m 60.3791,411.15221 c -1.09983,-0.59628 -3.19661,-3.96132 -4.17498,-6.70151 -0.99711,-2.79209 -1.66794,-7.74454 -1.45373,-10.73182 0.25152,-3.50908 0.49799,-5.87106 0.61931,-5.94584 0.18641,-0.11602 2.76775,3.15415 4.34364,5.5028 3.37807,5.02849 4.88749,9.26418 4.8783,13.69105 -0.005,2.74531 -0.50784,3.69027 -2.28399,4.29204 -0.82893,0.28007 -1.25776,0.25661 -1.92856,-0.10676 z"
     transform="translate(-233,-247.11)"
     id="path46691" /><path
     style="stroke:none;stroke-width:5.71428571;stroke-dasharray:none;stroke-linecap:butt;stroke-dashoffset:0;stroke-linejoin:miter;stroke-miterlimit:4;fill:#ffffff;fill-rule:nonzero;opacity:1;fill-opacity:1;stroke-opacity:1"
     d="m 411.41201,411.2347 c -0.8485,-0.48034 -1.50509,-1.56067 -1.50951,-2.48339 -6.6e-4,-0.40468 0.21895,-1.1095 0.55423,-1.77508 2.04026,-4.04449 5.66622,-7.25982 11.24413,-9.96761 2.57759,-1.25301 5.9365,-2.64774 6.06255,-2.5217 0.0461,0.0462 -0.20435,0.77347 -0.55387,1.6172 -2.33485,5.63956 -5.43296,10.00952 -9.00371,12.7025 -1.64002,1.23509 -4.77705,2.83412 -5.55418,2.83254 -0.29353,-6.5e-4 -0.85224,-0.18218 -1.23962,-0.40153 z"
     transform="translate(-233,-247.11)"
     id="path46689" /><path
     style="stroke:none;stroke-width:5.71428571;stroke-dasharray:none;stroke-linecap:butt;stroke-dashoffset:0;stroke-linejoin:miter;stroke-miterlimit:4;fill:#ffffff;fill-rule:nonzero;opacity:1;fill-opacity:1;stroke-opacity:1"
     d="m 52.30404,411.37047 c -2.16226,-0.79287 -5.37789,-3.00527 -7.1446,-4.91173 -1.46762,-1.58392 -2.92713,-3.60178 -4.07829,-5.63418 -1.02043,-1.80285 -3.00518,-6.19717 -2.86149,-6.33793 0.14416,-0.14412 4.94859,1.8917 6.98086,2.95536 4.33453,2.2735 7.38599,4.79601 9.29275,7.69375 1.33252,2.02229 1.78977,3.20067 1.58953,4.0866 -0.19509,0.86142 -0.90333,1.766 -1.66348,2.1257 -0.73079,0.34531 -1.2162,0.35004 -2.11528,0.0227 z"
     transform="translate(-233,-247.11)"
     id="path46687" /><path
     style="stroke:none;stroke-width:5.71428571;stroke-dasharray:none;stroke-linecap:butt;stroke-dashoffset:0;stroke-linejoin:miter;stroke-miterlimit:4;fill:#ffffff;fill-rule:nonzero;opacity:1;fill-opacity:1;stroke-opacity:1"
     d="m 386.83125,413.64205 c -0.43845,-0.15318 -0.82543,-0.29894 -0.86156,-0.33021 -0.0467,-0.0412 11.13744,-32.64281 11.87826,-34.62397 l 0.14492,-0.39099 1.07206,0.363 c 0.59109,0.19991 1.07221,0.41474 1.07241,0.47961 0,0.0649 -2.69263,7.92203 -5.98276,17.46133 -4.51579,13.09424 -6.04901,17.34052 -6.25451,17.33075 -0.14955,-0.009 -0.63332,-0.13929 -1.07179,-0.2895 z"
     transform="translate(-233,-247.11)"
     id="path46685" /><path
     style="stroke:none;stroke-width:5.71428571;stroke-dasharray:none;stroke-linecap:butt;stroke-dashoffset:0;stroke-linejoin:miter;stroke-miterlimit:4;fill:#ffffff;fill-rule:nonzero;opacity:1;fill-opacity:1;stroke-opacity:1"
     d="m 71.88136,396.68765 c -3.26206,-9.48829 -5.96088,-17.34425 -6.0013,-17.45327 -0.05601,-0.16365 2.07782,-1.05358 2.17191,-0.90479 0.08888,0.13939 11.97639,34.75119 11.97639,34.87526 0,0.13909 -1.69571,0.74999 -2.05548,0.74137 -0.08872,-6.5e-4 -2.82946,-7.76783 -6.09445,-17.25611 z"
     transform="translate(-233,-247.11)"
     id="path46683" /><path
     style="stroke:none;stroke-width:5.71428571;stroke-dasharray:none;stroke-linecap:butt;stroke-dashoffset:0;stroke-linejoin:miter;stroke-miterlimit:4;fill:#ffffff;fill-rule:nonzero;opacity:1;fill-opacity:1;stroke-opacity:1"
     d="m 390.5591,425.55243 c -1.53758,-0.66646 -1.98971,-1.53274 -2.0932,-4.00761 -0.25138,-5.90887 2.23671,-11.51485 8.47683,-19.10552 0.83797,-1.01646 1.37024,-1.53335 1.44488,-1.39772 0.3635,0.66236 0.76819,5.06939 0.76837,8.37872 0,4.0643 -0.23838,5.74593 -1.2622,8.82118 -0.92737,2.79155 -3.18797,6.51936 -4.40818,7.26515 -0.65283,0.40048 -2.0589,0.42012 -2.9265,0.0458 z"
     transform="translate(-233,-247.11)"
     id="path46681" /><path
     style="stroke:none;stroke-width:5.71428571;stroke-dasharray:none;stroke-linecap:butt;stroke-dashoffset:0;stroke-linejoin:miter;stroke-miterlimit:4;fill:#ffffff;fill-rule:nonzero;opacity:1;fill-opacity:1;stroke-opacity:1"
     d="m 72.61242,425.6136 c -0.676,-0.32598 -2.46985,-2.88466 -3.49576,-4.99067 -2.23216,-4.576 -2.82879,-9.81829 -1.92951,-16.94852 0.40148,-3.19273 0.32541,-3.12295 1.68724,-1.49513 4.8269,5.76902 7.5491,10.70803 8.42114,15.2706 0.28896,1.51013 0.33502,5.15388 0.07488,6.08569 -0.20974,0.75506 -1.08612,1.64552 -1.99036,2.02291 -0.75575,0.31649 -2.16643,0.34422 -2.76762,0.0551 z"
     transform="translate(-233,-247.11)"
     id="path46679" /><path
     style="stroke:none;stroke-width:5.71428571;stroke-dasharray:none;stroke-linecap:butt;stroke-dashoffset:0;stroke-linejoin:miter;stroke-miterlimit:4;fill:#ffffff;fill-rule:nonzero;opacity:1;fill-opacity:1;stroke-opacity:1"
     d="m 401.45959,426.03104 c -0.59225,-0.25671 -1.46839,-1.37933 -1.67677,-2.1441 -0.29435,-1.09911 0.009,-1.85067 1.40185,-3.48486 2.85649,-3.34575 7.38641,-5.82087 13.59307,-7.42852 1.90116,-0.49339 6.33839,-1.35151 6.44448,-1.24836 0.10786,0.10786 -1.70135,2.69308 -3.14606,4.48791 -2.90319,3.60755 -6.71517,6.77118 -9.98106,8.28045 -2.52058,1.16472 -5.76393,1.91536 -6.63551,1.53749 z"
     transform="translate(-233,-247.11)"
     id="path46677" /><path
     style="stroke:none;stroke-width:5.71428571;stroke-dasharray:none;stroke-linecap:butt;stroke-dashoffset:0;stroke-linejoin:miter;stroke-miterlimit:4;fill:#ffffff;fill-rule:nonzero;opacity:1;fill-opacity:1;stroke-opacity:1"
     d="m 61.40029,425.7464 c -5.88116,-1.63087 -10.55962,-5.30861 -15.43796,-12.14002 -0.70813,-0.99213 -1.24464,-1.84487 -1.19356,-1.89595 0.14393,-0.14392 6.08185,1.10917 8.09025,1.7057 5.17212,1.53724 8.98834,3.70439 11.64451,6.61311 1.48609,1.62674 1.94832,2.54863 1.78972,3.55481 -0.23783,1.50591 -1.43954,2.62346 -2.79099,2.59489 -0.32643,-0.009 -1.27247,-0.20062 -2.10197,-0.43255 z"
     transform="translate(-233,-247.11)"
     id="path46675" /><path
     style="stroke:none;stroke-width:5.71428571;stroke-dasharray:none;stroke-linecap:butt;stroke-dashoffset:0;stroke-linejoin:miter;stroke-miterlimit:4;fill:#ffffff;fill-rule:nonzero;opacity:1;fill-opacity:1;stroke-opacity:1"
     d="m 372.67933,426.48412 c -0.51252,-0.20948 -0.93194,-0.4611 -0.93205,-0.55911 -6.6e-4,-0.44213 19.09736,-46.92626 19.28297,-46.92997 0.19135,-0.005 1.84059,0.65265 1.97529,0.78736 0.0326,0.0326 -4.22692,10.54641 -9.46829,23.36589 -5.23846,12.81947 -9.56626,23.40724 -9.61312,23.52871 -0.10666,0.2711 -0.10212,0.27427 -1.2448,-0.19508 z"
     transform="translate(-233,-247.11)"
     id="path46673" /><path
     style="stroke:none;stroke-width:5.71428571;stroke-dasharray:none;stroke-linecap:butt;stroke-dashoffset:0;stroke-linejoin:miter;stroke-miterlimit:4;fill:#ffffff;fill-rule:nonzero;opacity:1;fill-opacity:1;stroke-opacity:1"
     d="m 82.60272,403.4641 c -5.2697,-12.88917 -9.59992,-23.49164 -9.62725,-23.56526 -0.04706,-0.13072 1.67209,-0.9088 2.00844,-0.9088 0.09814,0 4.00341,9.36209 8.67773,20.80335 4.67431,11.44126 9.00268,22.02742 9.61437,23.5193 l 1.11455,2.71595 -0.74974,0.3212 c -0.41074,0.17685 -0.90914,0.37235 -1.10527,0.43356 -0.32706,0.10302 -1.14252,-1.80869 -9.93575,-23.3193 z"
     transform="translate(-233,-247.11)"
     id="path46671" /><path
     style="stroke:none;stroke-width:5.71428571;stroke-dasharray:none;stroke-linecap:butt;stroke-dashoffset:0;stroke-linejoin:miter;stroke-miterlimit:4;fill:#ffffff;fill-rule:nonzero;opacity:1;fill-opacity:1;stroke-opacity:1"
     d="m 412.67522,427.21945 c -0.3546,-0.50781 -0.58683,-0.97407 -0.5128,-1.03841 0.13445,-0.11572 48.87872,-32.85773 49.74557,-33.41334 l 0.46122,-0.29754 0.64717,0.97369 0.64718,0.97371 -1.0198,0.68524 c -18.48635,12.44297 -49.1813,33.03939 -49.24162,33.03939 -0.0458,0 -0.37234,-0.41494 -0.72693,-0.92275 z"
     transform="translate(-233,-247.11)"
     id="path46669" /><path
     style="stroke:none;stroke-width:5.71428571;stroke-dasharray:none;stroke-linecap:butt;stroke-dashoffset:0;stroke-linejoin:miter;stroke-miterlimit:4;fill:#ffffff;fill-rule:nonzero;opacity:1;fill-opacity:1;stroke-opacity:1"
     d="M 27.46995,411.31839 C 13.73656,402.07766 2.49705,394.45306 2.4962,394.37354 c -0.00413,-0.11099 0.70425,-1.24853 1.15637,-1.85956 0.03672,-0.0472 49.85279,33.38079 50.16055,33.66025 0.14042,0.12962 -1.03406,1.976 -1.24421,1.95724 -0.07016,-0.005 -11.36557,-7.57234 -25.09896,-16.81308 z"
     transform="translate(-233,-247.11)"
     id="path46667" /><path
     style="stroke:none;stroke-width:5.71428571;stroke-dasharray:none;stroke-linecap:butt;stroke-dashoffset:0;stroke-linejoin:miter;stroke-miterlimit:4;fill:#ffffff;fill-rule:nonzero;opacity:1;fill-opacity:1;stroke-opacity:1"
     d="m 356.6113,438.41005 -1.03002,-0.52599 2.90359,-5.7137 c 1.598,-3.14166 8.44364,-16.62731 15.21417,-29.96486 l 12.30765,-24.25113 1.03399,0.52177 c 0.5684,0.28814 1.03399,0.5497 1.03399,0.58287 0,0.10232 -30.20659,59.63051 -30.32315,59.75963 -0.06,0.0651 -0.57241,-0.11722 -1.13731,-0.40606 z"
     transform="translate(-233,-247.11)"
     id="path46619" /><path
     style="stroke:none;stroke-width:5.71428571;stroke-dasharray:none;stroke-linecap:butt;stroke-dashoffset:0;stroke-linejoin:miter;stroke-miterlimit:4;fill:#ffffff;fill-rule:nonzero;opacity:1;fill-opacity:1;stroke-opacity:1"
     d="M 96.18247,415.05623 C 89.5093,401.90562 82.663,388.41479 80.96683,385.07758 l -3.08447,-6.06819 1.07236,-0.54102 1.07236,-0.54103 1.66848,3.32781 c 0.91796,1.83116 7.74523,15.29862 15.17302,29.92701 7.42779,14.6284 13.50454,26.65041 13.50454,26.71166 0,0.0929 -1.83639,1.07579 -2.00881,1.07579 -0.0277,0 -5.50866,-10.75986 -12.18183,-23.91047 z"
     transform="translate(-233,-247.11)"
     id="path46617" /><path
     style="stroke:none;stroke-width:5.71428571;stroke-dasharray:none;stroke-linecap:butt;stroke-dashoffset:0;stroke-linejoin:miter;stroke-miterlimit:4;fill:#ffffff;fill-rule:nonzero;opacity:1;fill-opacity:1;stroke-opacity:1"
     d="m 386.91986,440.0507 c -0.94661,-0.42439 -1.68647,-1.81295 -1.68647,-3.1697 0,-1.34204 0.56912,-2.24546 2.29317,-3.63042 4.46855,-3.59317 10.51783,-5.16823 18.64455,-4.852 1.70642,0.0656 3.37878,0.17745 3.71407,0.24765 l 0.60987,0.12972 -2.29341,2.10166 c -6.92935,6.34681 -12.38215,9.07287 -18.53201,9.26336 -1.31831,0.0415 -2.55424,8.5e-4 -2.74976,-0.0844 z"
     transform="translate(-233,-247.11)"
     id="path46615" /><path
     style="stroke:none;stroke-width:5.71428571;stroke-dasharray:none;stroke-linecap:butt;stroke-dashoffset:0;stroke-linejoin:miter;stroke-miterlimit:4;fill:#ffffff;fill-rule:nonzero;opacity:1;fill-opacity:1;stroke-opacity:1"
     d="M 73.57227,439.923 C 68.3675,438.98225 62.7281,435.65869 57.25698,430.30466 l -1.57077,-1.53767 0.59608,-0.14472 c 0.32667,-0.0795 2.55295,-0.15902 4.94371,-0.17735 5.90945,-0.0428 9.07828,0.47085 12.79664,2.0825 2.72577,1.17953 5.81987,3.52308 6.40715,4.85118 0.69406,1.56657 0.13478,3.8357 -1.10967,4.50546 -0.75885,0.40575 -3.61086,0.42809 -5.74493,0.0419 z"
     transform="translate(-233,-247.11)"
     id="path46613" /><path
     style="stroke:none;stroke-width:5.71428571;stroke-dasharray:none;stroke-linecap:butt;stroke-dashoffset:0;stroke-linejoin:miter;stroke-miterlimit:4;fill:#ffffff;fill-rule:nonzero;opacity:1;fill-opacity:1;stroke-opacity:1"
     d="m 375.7131,440.66569 c -0.58692,-0.27425 -1.08047,-0.67021 -1.37489,-1.10431 -0.40965,-0.60141 -0.46097,-0.84852 -0.45599,-2.1901 0.0187,-4.64561 1.86841,-9.01223 5.97803,-14.1155 1.80793,-2.24594 5.53524,-6.14673 5.74578,-6.01605 0.21905,0.13525 0.20052,5.03289 -0.0281,7.53054 -0.46535,5.06104 -2.04145,9.76275 -4.28667,12.76891 -2.63687,3.53231 -3.57449,4.05879 -5.57812,3.1265 z"
     transform="translate(-233,-247.11)"
     id="path46611" /><path
     style="stroke:none;stroke-width:5.71428571;stroke-dasharray:none;stroke-linecap:butt;stroke-dashoffset:0;stroke-linejoin:miter;stroke-miterlimit:4;fill:#ffffff;fill-rule:nonzero;opacity:1;fill-opacity:1;stroke-opacity:1"
     d="m 87.925,440.92708 c -0.49879,-0.20112 -2.57318,-2.43692 -3.41646,-3.6774 -1.64983,-2.43212 -2.93033,-5.64345 -3.57005,-8.97035 -0.60046,-3.1043 -0.88596,-7.92125 -0.6105,-10.22001 l 0.11248,-0.94591 1.49533,1.47755 c 4.04024,3.99455 7.22804,8.29009 8.6311,11.62625 1.18387,2.81437 1.92372,6.98161 1.50511,8.50066 -0.43359,1.57966 -2.7113,2.79179 -4.14701,2.20922 z"
     transform="translate(-233,-247.11)"
     id="path46609" /><path
     style="stroke:none;stroke-width:5.71428571;stroke-dasharray:none;stroke-linecap:butt;stroke-dashoffset:0;stroke-linejoin:miter;stroke-miterlimit:4;fill:#ffffff;fill-rule:nonzero;opacity:1;fill-opacity:1;stroke-opacity:1"
     d="m 395.79636,443.58535 c -0.24644,-0.48467 -0.44708,-0.96461 -0.44708,-1.06687 0,-0.16285 54.12072,-27.22323 54.21831,-27.10777 0.10312,0.12156 0.96875,1.91059 0.96875,2.00394 0,0.0938 -54.02815,27.05167 -54.21879,27.05167 -0.0414,0 -0.27471,-0.39629 -0.52119,-0.88096 z"
     transform="translate(-233,-247.11)"
     id="path46607" /><path
     style="stroke:none;stroke-width:5.71428571;stroke-dasharray:none;stroke-linecap:butt;stroke-dashoffset:0;stroke-linejoin:miter;stroke-miterlimit:4;fill:#ffffff;fill-rule:nonzero;opacity:1;fill-opacity:1;stroke-opacity:1"
     d="m 42.4577,430.97171 c -14.85996,-7.40474 -27.01465,-13.50453 -27.01465,-13.55542 0,-0.24261 0.97886,-2.05007 1.08996,-2.00863 0.06966,0.0237 12.30307,6.10545 27.19025,13.51403 l 27.06146,13.46748 -0.52275,1.03889 c -0.28869,0.57241 -0.58265,1.03036 -0.65325,1.02125 -0.0706,-0.009 -12.28812,-6.07286 -27.14515,-13.47758 z"
     transform="translate(-233,-247.11)"
     id="path46605" /><path
     style="stroke:none;stroke-width:5.71428571;stroke-dasharray:none;stroke-linecap:butt;stroke-dashoffset:0;stroke-linejoin:miter;stroke-miterlimit:4;fill:#ffffff;fill-rule:nonzero;opacity:1;fill-opacity:1;stroke-opacity:1"
     d="m 341.96513,451.46039 -0.93747,-0.63319 0.31259,-0.47527 c 11.8035,-17.90437 24.63298,-41.25521 34.50729,-62.79896 1.30885,-2.85257 2.42795,-5.19051 2.48884,-5.19086 0.0609,-6.6e-4 0.55429,0.20052 1.09483,0.44767 l 0.98307,0.45123 -0.98276,2.16708 c -8.40582,18.55129 -17.34037,35.60831 -27.34936,52.20592 -3.14149,5.21044 -8.57042,13.83509 -8.96528,14.23702 -0.16849,0.17322 -0.40978,0.0886 -1.15176,-0.41082 z"
     transform="translate(-233,-247.11)"
     id="path46603" /><path
     style="stroke:none;stroke-width:5.71428571;stroke-dasharray:none;stroke-linecap:butt;stroke-dashoffset:0;stroke-linejoin:miter;stroke-miterlimit:4;fill:#ffffff;fill-rule:nonzero;opacity:1;fill-opacity:1;stroke-opacity:1"
     d="m 120.97336,448.95141 c -9.8098,-15.18757 -19.76259,-32.94279 -28.09092,-50.12368 -2.66483,-5.494 -6.84476,-14.46883 -7.06509,-15.17227 -0.10291,-0.32662 -0.014,-0.44696 0.5503,-0.73153 1.43597,-0.72631 1.3134,-0.81113 2.45123,1.69585 10.45259,23.00198 23.08547,46.23767 35.07607,64.52283 0.56797,0.86597 1.03028,1.63076 1.03028,1.70116 0,0.0704 -0.18097,0.21865 -0.4002,0.32608 -0.21923,0.10746 -0.65162,0.36324 -0.95598,0.5677 l -0.55871,0.36882 z"
     transform="translate(-233,-247.11)"
     id="path46601" /><path
     style="stroke:none;stroke-width:5.71428571;stroke-dasharray:none;stroke-linecap:butt;stroke-dashoffset:0;stroke-linejoin:miter;stroke-miterlimit:4;fill:#ffffff;fill-rule:nonzero;opacity:1;fill-opacity:1;stroke-opacity:1"
     d="m 371.74749,452.2498 c -1.20751,-0.19618 -1.74683,-0.57242 -2.27428,-1.58435 -0.4888,-0.93591 -0.43791,-2.15243 0.12609,-3.06569 0.76921,-1.24467 4.78068,-3.1591 8.18225,-3.90127 1.4034,-0.30749 2.30682,-0.36863 5.41091,-0.37269 3.67759,-0.004 6.45383,0.27893 10.11296,1.0255 l 1.06329,0.21845 -1.86368,1.29517 c -5.07415,3.52377 -9.56711,5.57322 -13.82669,6.30048 -1.80319,0.30771 -5.30293,0.35005 -6.93381,0.0844 z"
     transform="translate(-233,-247.11)"
     id="path46599" /><path
     style="stroke:none;stroke-width:5.71428571;stroke-dasharray:none;stroke-linecap:butt;stroke-dashoffset:0;stroke-linejoin:miter;stroke-miterlimit:4;fill:#ffffff;fill-rule:nonzero;opacity:1;fill-opacity:1;stroke-opacity:1"
     d="m 360.21877,452.26343 c -0.86613,-0.36378 -1.57524,-1.06195 -1.87251,-1.83568 -0.26487,-0.68998 -0.27449,-0.9461 -0.0831,-2.0878 0.48871,-2.90275 1.80854,-5.8622 3.7889,-8.4865 1.43121,-1.90044 4.90304,-5.30248 7.56301,-7.41002 l 2.04089,-1.61788 0.0561,0.74025 c 0.0878,1.13243 -0.46179,5.04181 -1.03978,7.40936 -1.36028,5.56826 -3.74206,9.58549 -7.52093,12.68037 -0.64381,0.52731 -1.00619,0.68917 -1.65948,0.73603 -0.46085,0.0328 -1.03419,-0.0227 -1.27604,-0.12519 z"
     transform="translate(-233,-247.11)"
     id="path46597" /><path
     style="stroke:none;stroke-width:5.71428571;stroke-dasharray:none;stroke-linecap:butt;stroke-dashoffset:0;stroke-linejoin:miter;stroke-miterlimit:4;fill:#ffffff;fill-rule:nonzero;opacity:1;fill-opacity:1;stroke-opacity:1"
     d="m 103.2561,451.93215 c -1.05843,-0.70844 -3.43916,-3.19131 -4.35766,-4.54388 -2.51202,-3.70076 -4.12416,-8.97993 -4.59956,-15.06193 l -0.12509,-1.58432 1.66347,1.27678 c 4.60464,3.53631 8.01531,7.14847 9.86927,10.45695 0.88487,1.57927 1.78032,4.20251 2.03221,5.94618 0.20056,1.38884 0.19104,1.54179 -0.14066,2.18548 -0.49389,0.95546 -1.59451,1.70012 -2.66531,1.79805 -0.73231,0.066 -0.97326,0 -1.67375,-0.47037 z"
     transform="translate(-233,-247.11)"
     id="path46595" /><path
     style="stroke:none;stroke-width:5.71428571;stroke-dasharray:none;stroke-linecap:butt;stroke-dashoffset:0;stroke-linejoin:miter;stroke-miterlimit:4;fill:#ffffff;fill-rule:nonzero;opacity:1;fill-opacity:1;stroke-opacity:1"
     d="m 87.39449,452.19282 c -4.24612,-0.77389 -8.28039,-2.54912 -12.95426,-5.70306 -2.38129,-1.60717 -2.66079,-1.81785 -2.54451,-1.93414 0.14971,-0.14965 5.06994,-0.9365 7.14414,-1.14143 6.57579,-0.64817 11.91109,0.36419 16.13708,3.06692 1.61227,1.03038 2.13428,2.67426 1.36017,4.27361 -0.43805,0.90437 -1.0435,1.26815 -2.49858,1.50534 -1.52803,0.24724 -5.10329,0.20978 -6.6411,-0.0702 z"
     transform="translate(-233,-247.11)"
     id="path46593" /><path
     style="stroke:none;stroke-width:5.71428571;stroke-dasharray:none;stroke-linecap:butt;stroke-dashoffset:0;stroke-linejoin:miter;stroke-miterlimit:4;fill:#ffffff;fill-rule:nonzero;opacity:1;fill-opacity:1;stroke-opacity:1"
     d="m 378.32258,455.13099 c -0.0929,-0.35036 -0.19145,-0.86686 -0.22298,-1.14582 l -0.0552,-0.50399 28.48108,-7.0736 c 15.66283,-3.89077 28.57558,-7.07483 28.69565,-7.07925 0.19185,-0.005 0.33131,0.35904 0.67091,1.7667 l 0.10706,0.44327 -22.85317,5.6662 c -12.56866,3.117 -25.50893,6.31867 -28.75292,7.1158 l -5.89975,1.4496 z"
     transform="translate(-233,-247.11)"
     id="path46591" /><path
     style="stroke:none;stroke-width:5.71428571;stroke-dasharray:none;stroke-linecap:butt;stroke-dashoffset:0;stroke-linejoin:miter;stroke-miterlimit:4;fill:#ffffff;fill-rule:nonzero;opacity:1;fill-opacity:1;stroke-opacity:1"
     d="m 58.94499,448.71104 c -15.64796,-3.8816 -28.55658,-7.09746 -28.68714,-7.14831 -0.19602,-0.0749 -0.19111,-0.27001 0.03197,-1.12282 0.14858,-0.56802 0.29798,-1.06192 0.33167,-1.09591 0.08863,-0.0924 57.09366,14.01786 57.27201,14.17596 0.12153,0.10696 -0.27418,2.07312 -0.44281,2.2042 -0.03209,0.0237 -12.85775,-3.13153 -28.50571,-7.01312 z"
     transform="translate(-233,-247.11)"
     id="path46589" /><path
     style="stroke:none;stroke-width:5.71428571;stroke-dasharray:none;stroke-linecap:butt;stroke-dashoffset:0;stroke-linejoin:miter;stroke-miterlimit:4;fill:#ffffff;fill-rule:nonzero;opacity:1;fill-opacity:1;stroke-opacity:1"
     d="m 314.02838,456.38206 c -0.36313,-0.47534 -0.65782,-0.90458 -0.65782,-0.95551 0,-0.051 0.65769,-0.60074 1.46348,-1.22117 13.29933,-10.26578 26.79554,-24.76908 37.7508,-40.57001 1.02503,-1.47747 1.92901,-2.68968 2.00852,-2.69736 0.11139,-0.005 1.38895,0.78786 1.86901,1.16113 0.18148,0.14019 -6.94784,9.9072 -10.3492,14.17636 -7.42858,9.32931 -15.2656,17.53606 -23.52345,24.64177 -2.04579,1.76093 -7.53501,6.19329 -7.77368,6.28116 -0.0702,0.0237 -0.42455,-0.34102 -0.78766,-0.81636 z"
     transform="translate(-233,-247.11)"
     id="path46587" /><path
     style="stroke:none;stroke-width:5.71428571;stroke-dasharray:none;stroke-linecap:butt;stroke-dashoffset:0;stroke-linejoin:miter;stroke-miterlimit:4;fill:#ffffff;fill-rule:nonzero;opacity:1;fill-opacity:1;stroke-opacity:1"
     d="m 149.02666,455.52843 c -9.35179,-7.32581 -19.06911,-16.93441 -27.35469,-27.04207 -3.79804,-4.6326 -12.00479,-15.75117 -12.00479,-16.26344 0,-0.19115 1.47733,-1.29468 1.73368,-1.29468 0.0928,0 0.47114,0.46053 0.84359,1.02046 1.24371,1.87411 5.7134,7.99176 7.83396,10.71788 4.94895,6.36095 9.30198,11.33789 14.77722,16.89243 5.42498,5.50401 9.24138,8.96208 14.86613,13.47296 1.58496,1.27203 2.88414,2.36696 2.88414,2.43252 0,0.12186 -1.2486,1.77544 -1.34175,1.77544 -0.0281,0 -1.03499,-0.76973 -2.23749,-1.71442 z"
     transform="translate(-233,-247.11)"
     id="path46585" /><path
     style="stroke:none;stroke-width:5.71428571;stroke-dasharray:none;stroke-linecap:butt;stroke-dashoffset:0;stroke-linejoin:miter;stroke-miterlimit:4;fill:#ffffff;fill-rule:nonzero;opacity:1;fill-opacity:1;stroke-opacity:1"
     d="m 345.49717,462.88579 c -1.2251,-0.6376 -1.52364,-1.1742 -1.49513,-2.68807 0.0744,-3.81281 2.28853,-8.24875 6.28196,-12.57816 1.62687,-1.76573 4.58607,-4.47351 4.73028,-4.32931 0.13566,0.13576 -0.27579,5.01852 -0.56359,6.64062 -0.82399,4.66932 -2.25126,8.00192 -4.70686,10.97871 -1.87829,2.27797 -2.8243,2.7168 -4.24958,1.9762 z"
     transform="translate(-233,-247.11)"
     id="path46583" /><path
     style="stroke:none;stroke-width:5.71428571;stroke-dasharray:none;stroke-linecap:butt;stroke-dashoffset:0;stroke-linejoin:miter;stroke-miterlimit:4;fill:#ffffff;fill-rule:nonzero;opacity:1;fill-opacity:1;stroke-opacity:1"
     d="m 118.62065,463.11562 c -0.57235,-0.24654 -2.36258,-2.12418 -3.31875,-3.47711 -1.66759,-2.35824 -2.81449,-5.13546 -3.50034,-8.4717 -0.53642,-2.60896 -0.99642,-7.67991 -0.70857,-7.85688 0.24242,-0.14945 5.81616,5.48038 6.94311,7.01308 2.07392,2.82364 3.18362,5.18716 3.77386,8.0334 0.50836,2.46494 0.32122,3.40156 -0.86658,4.30607 -0.65624,0.49893 -1.72805,0.70888 -2.31685,0.45606 z"
     transform="translate(-233,-247.11)"
     id="path46581" /><path
     style="stroke:none;stroke-width:5.71428571;stroke-dasharray:none;stroke-linecap:butt;stroke-dashoffset:0;stroke-linejoin:miter;stroke-miterlimit:4;fill:#ffffff;fill-rule:nonzero;opacity:1;fill-opacity:1;stroke-opacity:1"
     d="m 351.87599,466.80215 c -1.55117,-0.61556 -2.52579,-2.76892 -2.12555,-4.69323 0.26528,-1.27605 1.18358,-2.27453 3.48577,-3.79717 2.01829,-1.33305 3.57962,-2.04979 6.01173,-2.7538 3.30332,-0.95592 4.45447,-1.06725 11.11866,-1.067 4.18488,0 6.22052,0.0612 6.35108,0.19175 0.13919,0.13919 -0.33564,0.69975 -1.68213,1.99854 -6.08118,5.8574 -11.5622,9.09219 -17.0176,10.04293 -1.74708,0.30351 -5.45205,0.34979 -6.14197,0.075 z"
     transform="translate(-233,-247.11)"
     id="path46579" /><path
     style="stroke:none;stroke-width:5.71428571;stroke-dasharray:none;stroke-linecap:butt;stroke-dashoffset:0;stroke-linejoin:miter;stroke-miterlimit:4;fill:#ffffff;fill-rule:nonzero;opacity:1;fill-opacity:1;stroke-opacity:1"
     d="m 107.88917,466.72716 c -3.05697,-0.55515 -6.64011,-2.10113 -9.84714,-4.24502 -2.29681,-1.53358 -4.01631,-2.9404 -6.8921,-5.63456 -1.78926,-1.67705 -2.0552,-1.99432 -1.79402,-2.13949 0.1682,-0.0937 2.59121,-0.21361 5.38284,-0.26124 4.15652,-0.0742 5.50888,-0.0333 7.46925,0.21481 4.1796,0.53519 7.00481,1.44947 10.00012,3.2389 1.89701,1.13312 3.75524,2.92622 4.00739,3.86745 0.51313,1.91112 -0.2375,4.00298 -1.74253,4.84729 -0.61072,0.34433 -0.93672,0.38284 -2.96866,0.36879 -1.25424,-0.009 -2.88047,-0.12549 -3.61221,-0.25691 z"
     transform="translate(-233,-247.11)"
     id="path46577" /><path
     style="stroke:none;stroke-width:5.71428571;stroke-dasharray:none;stroke-linecap:butt;stroke-dashoffset:0;stroke-linejoin:miter;stroke-miterlimit:4;fill:#ffffff;fill-rule:nonzero;opacity:1;fill-opacity:1;stroke-opacity:1"
     d="m 294.22229,469.35753 c -0.77313,-0.40153 -1.25781,-1.32264 -1.25781,-2.38153 0,-0.71815 0.10676,-0.95973 0.79649,-1.80743 1.60754,-1.97189 4.76167,-3.94284 7.98737,-4.99132 2.6001,-0.84388 9.60423,-1.99526 9.96278,-1.63964 0.15429,0.15419 -2.2045,2.94044 -3.95223,4.66502 -3.13172,3.0901 -6.39804,5.06145 -9.78638,5.90881 -2.21432,0.55401 -3.0522,0.60651 -3.74728,0.24311 z"
     transform="translate(-233,-247.11)"
     id="path46575" /><path
     style="stroke:none;stroke-width:5.71428571;stroke-dasharray:none;stroke-linecap:butt;stroke-dashoffset:0;stroke-linejoin:miter;stroke-miterlimit:4;fill:#ffffff;fill-rule:nonzero;opacity:1;fill-opacity:1;stroke-opacity:1"
     d="m 169.21892,469.38694 c -3.94753,-0.78349 -7.1958,-2.5913 -10.65202,-5.92377 -1.59405,-1.53828 -4.36606,-4.66044 -4.36606,-4.91725 0,-0.16355 2.71127,0.0973 5.11209,0.49318 5.4841,0.9035 9.10044,2.46574 12.07797,5.22358 1.27747,1.18367 1.88283,2.29803 1.70133,3.14054 -0.19969,0.92235 -0.58747,1.54312 -1.19836,1.91598 -0.65231,0.39667 -0.99174,0.4059 -2.67495,0.0707 z"
     transform="translate(-233,-247.11)"
     id="path46573" /><path
     style="stroke:none;stroke-width:5.71428571;stroke-dasharray:none;stroke-linecap:butt;stroke-dashoffset:0;stroke-linejoin:miter;stroke-miterlimit:4;fill:#ffffff;fill-rule:nonzero;opacity:1;fill-opacity:1;stroke-opacity:1"
     d="m 277.43768,470.38079 c -1.21103,-0.49935 -1.86819,-2.34835 -1.25741,-3.52852 0.40024,-0.77309 2.74412,-2.89415 4.19003,-3.79404 3.01108,-1.87343 7.92168,-3.24274 12.96365,-3.61195 1.62248,-0.12055 1.6628,-0.11249 1.39279,0.21401 -4.3713,5.3038 -7.396,7.88492 -11.08069,9.45007 -2.1535,0.91402 -5.44731,1.58988 -6.2113,1.27631 z"
     transform="translate(-233,-247.11)"
     id="path46571" /><path
     style="stroke:none;stroke-width:5.71428571;stroke-dasharray:none;stroke-linecap:butt;stroke-dashoffset:0;stroke-linejoin:miter;stroke-miterlimit:4;fill:#ffffff;fill-rule:nonzero;opacity:1;fill-opacity:1;stroke-opacity:1"
     d="m 186.27424,470.27531 c -4.76696,-0.88473 -9.03983,-3.63942 -13.24856,-8.54625 -0.98324,-1.14617 -1.78878,-2.15709 -1.78878,-2.24583 0,-0.21845 2.5997,6.6e-4 5.14509,0.4337 5.62431,0.95514 9.36268,2.62439 12.1805,5.4422 1.24013,1.24013 1.48263,1.67285 1.48263,2.63769 0,1.1236 -0.89551,2.29805 -1.87271,2.45128 -0.28861,0.046 -1.14234,-0.0327 -1.90109,-0.17282 z"
     transform="translate(-233,-247.11)"
     id="path46569" /><path
     style="stroke:none;stroke-width:5.71428571;stroke-dasharray:none;stroke-linecap:butt;stroke-dashoffset:0;stroke-linejoin:miter;stroke-miterlimit:4;fill:#ffffff;fill-rule:nonzero;opacity:1;fill-opacity:1;stroke-opacity:1"
     d="m 352.83707,471.34178 c -0.0601,-0.31667 -0.12096,-0.83933 -0.13555,-1.16474 l -0.0281,-0.58791 15.4382,-2.61392 c 8.49057,-1.43605 15.52721,-2.58573 15.63829,-2.54932 0.20958,0.0658 0.52227,1.99995 0.35334,2.17179 -0.0553,0.0553 -7.08726,1.27265 -15.62555,2.70809 l -15.52735,2.6099 z"
     transform="translate(-233,-247.11)"
     id="path46567" /><path
     style="stroke:none;stroke-width:5.71428571;stroke-dasharray:none;stroke-linecap:butt;stroke-dashoffset:0;stroke-linejoin:miter;stroke-miterlimit:4;fill:#ffffff;fill-rule:nonzero;opacity:1;fill-opacity:1;stroke-opacity:1"
     d="m 97.45868,469.29731 c -8.51886,-1.435 -15.53179,-2.65099 -15.58297,-2.70217 -0.0846,-0.0846 0.21943,-2.07314 0.33613,-2.18985 0.02821,-0.0282 7.06066,1.12275 15.62962,2.55801 l 15.57806,2.60957 -0.12069,0.97468 c -0.0655,0.53622 -0.17227,1.06208 -0.23693,1.16533 -0.0789,0.12972 -5.13472,-0.65631 -15.60614,-2.41849 z"
     transform="translate(-233,-247.11)"
     id="path46565" /><path
     style="stroke:none;stroke-width:5.71428571;stroke-dasharray:none;stroke-linecap:butt;stroke-dashoffset:0;stroke-linejoin:miter;stroke-miterlimit:4;fill:#ffffff;fill-rule:nonzero;opacity:1;fill-opacity:1;stroke-opacity:1"
     d="m 257.72191,476.15175 c -1.05716,-0.46074 -1.78556,-2.0498 -1.4687,-3.19657 0.22821,-0.8252 1.4998,-2.47962 2.94051,-3.83009 3.10796,-2.9075 7.54537,-4.86933 14.20792,-6.27752 1.09908,-0.23274 1.99513,-0.36272 1.99513,-0.28812 0,0.0746 -0.40975,0.76359 -0.9089,1.5285 -4.3052,6.59365 -8.71471,10.31212 -14.07787,11.8647 -1.77472,0.51309 -1.93319,0.5262 -2.68811,0.19618 z"
     transform="translate(-233,-247.11)"
     id="path46563" /><path
     style="stroke:none;stroke-width:5.71428571;stroke-dasharray:none;stroke-linecap:butt;stroke-dashoffset:0;stroke-linejoin:miter;stroke-miterlimit:4;fill:#ffffff;fill-rule:nonzero;opacity:1;fill-opacity:1;stroke-opacity:1"
     d="m 205.88425,476.04922 c -5.15794,-1.35137 -9.81444,-5.16326 -14.0447,-11.49159 -1.52453,-2.2834 -1.52317,-2.17704 -0.0658,-1.90122 5.25564,1.00162 10.0608,2.79573 13.08035,4.88326 1.39387,0.96446 3.54636,3.10364 4.44516,4.41824 0.93244,1.36606 0.59182,3.11701 -0.79137,4.04579 -0.70839,0.47612 -0.95448,0.48055 -2.62367,0.0426 z"
     transform="translate(-233,-247.11)"
     id="path46561" /><path
     style="stroke:none;stroke-width:5.71428571;stroke-dasharray:none;stroke-linecap:butt;stroke-dashoffset:0;stroke-linejoin:miter;stroke-miterlimit:4;fill:#ffffff;fill-rule:nonzero;opacity:1;fill-opacity:1;stroke-opacity:1"
     d="m 235.7022,478.36351 c -1.03995,-0.63418 -1.59298,-2.39441 -1.12847,-3.60734 0.26116,-0.68898 2.43186,-2.71744 4.08731,-3.82636 0.83857,-0.55973 2.24112,-1.31945 3.11712,-1.68761 3.0391,-1.27731 7.92233,-2.29321 12.20046,-2.53938 1.40789,-0.0798 1.92963,-0.056 1.88191,0.0883 -0.15852,0.46119 -3.85312,4.40918 -5.35852,5.72796 -3.79834,3.3273 -7.27948,5.12119 -11.49098,5.91868 -1.90612,0.3628 -2.61972,0.34516 -3.30883,-0.0743 z"
     transform="translate(-233,-247.11)"
     id="path46559" /><path
     style="stroke:none;stroke-width:5.71428571;stroke-dasharray:none;stroke-linecap:butt;stroke-dashoffset:0;stroke-linejoin:miter;stroke-miterlimit:4;fill:#ffffff;fill-rule:nonzero;opacity:1;fill-opacity:1;stroke-opacity:1"
     d="m 227.75307,478.5957 c -5.86246,-0.89503 -11.01193,-4.14257 -16.42151,-10.35386 l -1.31388,-1.50926 0.95018,-0.0554 c 0.52201,-0.0287 2.07786,0.0746 3.45386,0.23274 7.23283,0.82891 11.92078,2.65679 15.58302,6.08177 1.52433,1.42621 1.89644,2.47972 1.40203,3.98018 -0.34067,1.03462 -1.09992,1.61166 -2.18581,1.65896 -0.51331,0.0237 -1.17459,0.005 -1.46787,-0.0411 z"
     transform="translate(-233,-247.11)"
     id="path46557" /><path
     style="stroke:none;stroke-width:5.71428571;stroke-dasharray:none;stroke-linecap:butt;stroke-dashoffset:0;stroke-linejoin:miter;stroke-miterlimit:4;fill:#ffffff;fill-rule:nonzero;opacity:1;fill-opacity:1;stroke-opacity:1"
     d="m 283.13756,480.38486 c -2.89858,-0.45156 -6.48181,-1.82167 -7.9134,-3.02825 -1.09057,-0.91796 -1.08595,-2.61975 0.01,-3.86865 0.43384,-0.49435 0.76504,-0.66086 1.80843,-0.89541 1.63061,-0.37203 4.89684,-0.37741 6.78099,-0.0138 3.35954,0.6476 7.98669,2.6516 12.12084,5.25149 l 1.83065,1.15058 -0.76443,0.22771 c -1.32788,0.39217 -4.95752,1.07686 -6.74725,1.2721 -2.27909,0.24714 -5.18252,0.20978 -7.12552,-0.0928 z"
     transform="translate(-233,-247.11)"
     id="path46555" /><path
     style="stroke:none;stroke-width:5.71428571;stroke-dasharray:none;stroke-linecap:butt;stroke-dashoffset:0;stroke-linejoin:miter;stroke-miterlimit:4;fill:#ffffff;fill-rule:nonzero;opacity:1;fill-opacity:1;stroke-opacity:1"
     d="m 175.49592,480.47769 c -1.40777,-0.17262 -5.29802,-0.92353 -6.45465,-1.2486 -0.87088,-0.24251 -0.81627,-0.29816 1.7526,-1.84943 4.0968,-2.47038 8.21621,-4.20786 11.39431,-4.80398 1.82224,-0.34068 4.78196,-0.37255 6.52782,-0.0661 1.08151,0.19035 1.33701,0.31179 1.9751,0.94634 1.12345,1.12238 1.26348,2.76743 0.31692,3.71399 -0.96509,0.9651 -4.19418,2.38108 -6.81686,2.98698 -1.75705,0.40576 -6.55265,0.58254 -8.69525,0.3208 z"
     transform="translate(-233,-247.11)"
     id="path46553" /><path
     style="stroke:none;stroke-width:5.71428571;stroke-dasharray:none;stroke-linecap:butt;stroke-dashoffset:0;stroke-linejoin:miter;stroke-miterlimit:4;fill:#ffffff;fill-rule:nonzero;opacity:1;fill-opacity:1;stroke-opacity:1"
     d="m 263.03426,485.36904 c -2.41,-0.43785 -5.92217,-1.87806 -6.7155,-2.75805 -0.46058,-0.50779 -0.54123,-1.77042 -0.16798,-2.5582 0.40945,-0.86155 0.92221,-1.17822 2.3619,-1.45456 3.38375,-0.65645 7.11201,0.0428 11.54713,2.16679 2.09231,1.00182 5.87153,3.21588 5.87153,3.4399 0,0.15349 -3.96185,0.98713 -5.91328,1.2436 -1.85994,0.24624 -5.41462,0.20485 -6.98088,-0.0795 z"
     transform="translate(-233,-247.11)"
     id="path46551" /><path
     style="stroke:none;stroke-width:5.71428571;stroke-dasharray:none;stroke-linecap:butt;stroke-dashoffset:0;stroke-linejoin:miter;stroke-miterlimit:4;fill:#ffffff;fill-rule:nonzero;opacity:1;fill-opacity:1;stroke-opacity:1"
     d="m 195.26303,485.36904 c -1.63066,-0.24765 -4.81788,-0.94533 -5.10673,-1.11384 -0.22283,-0.13032 2.42242,-1.78493 4.84572,-3.03387 3.54166,-1.82621 7.14913,-2.8658 9.93009,-2.86168 1.57111,6.5e-4 3.36019,0.30369 4.01275,0.6804 1.09452,0.62904 1.52297,2.52972 0.78241,3.46786 -0.50328,0.63893 -3.63027,2.12044 -5.48446,2.59608 -1.9432,0.49885 -6.55192,0.63414 -8.97978,0.26507 z"
     transform="translate(-233,-247.11)"
     id="path46549" /><path
     style="stroke:none;stroke-width:5.71428571;stroke-dasharray:none;stroke-linecap:butt;stroke-dashoffset:0;stroke-linejoin:miter;stroke-miterlimit:4;fill:#ffffff;fill-rule:nonzero;opacity:1;fill-opacity:1;stroke-opacity:1"
     d="m 246.47268,488.52395 c -3.78447,-0.29807 -8.03004,-1.91082 -10.2797,-3.9054 -0.70323,-0.62406 -0.78229,-0.77332 -0.77905,-1.48153 6.6e-4,-0.93754 0.42008,-1.82196 1.06783,-2.24615 1.68729,-1.105 7.21794,-0.21845 10.877,1.74774 2.96908,1.59412 7.8935,5.22929 7.42746,5.48504 -0.6014,0.33019 -5.94586,0.58667 -8.31353,0.4003 z"
     transform="translate(-233,-247.11)"
     id="path46547" /><path
     style="stroke:none;stroke-width:5.71428571;stroke-dasharray:none;stroke-linecap:butt;stroke-dashoffset:0;stroke-linejoin:miter;stroke-miterlimit:4;fill:#ffffff;fill-rule:nonzero;opacity:1;fill-opacity:1;stroke-opacity:1"
     d="m 213.55831,488.45787 c -2.86637,-0.27031 -2.85155,-0.25088 -1.2162,-1.55674 2.10086,-1.67828 5.38673,-3.83562 7.02787,-4.6131 2.78209,-1.31438 4.95439,-1.84057 7.6104,-1.84057 2.12043,0 2.69891,0.26174 3.31843,1.50579 0.57726,1.15645 0.42904,1.85038 -0.5783,2.73581 -3.39739,2.98253 -9.46986,4.39868 -16.16512,3.76588 z"
     transform="translate(-233,-247.11)"
     id="path46545" /><path
     style="stroke:none;stroke-width:0;stroke-dasharray:none;stroke-linecap:butt;stroke-dashoffset:0;stroke-linejoin:miter;stroke-miterlimit:4;fill:#ffffff;fill-rule:nonzero;opacity:1;fill-opacity:1;stroke-opacity:1"
     d="m 221.81051,493.33631 c -22.74085,-2.12428 -32.98317,-3.5233 -44.7552,-6.11952 -8.61634,-1.90108 -18.32858,-4.80906 -24.95848,-7.47082 -5.31177,-2.13418 -6.94828,-2.31557 -16.43546,-1.81325 -3.18689,0.16788 -6.26721,-0.49919 -10.82475,-2.34854 -2.16243,-0.87644 -9.84714,-4.67414 -9.84714,-4.86539 0,-0.28808 3.20197,-1.47242 5.02381,-1.85949 1.5758,-0.33554 4.63654,-0.32687 6.61797,0.0148 2.60521,0.45217 6.61778,1.89724 10.35867,3.73234 3.74591,1.8361 4.32496,1.97668 5.06589,1.23576 0.54924,-0.54924 0.54593,-0.82457 -0.005,-1.48149 -0.33934,-0.40107 -0.94982,-0.69866 -2.61353,-1.2679 -4.07339,-1.39761 -6.25457,-2.62438 -8.57863,-4.83201 -2.61915,-2.48839 -4.15721,-5.26535 -5.31709,-9.59503 l -0.41507,-1.55216 0.47528,0.11592 c 1.40672,0.34009 4.24994,1.45343 5.88619,2.30243 3.99349,2.07393 6.95745,4.64184 12.1587,10.53606 1.68144,1.90195 3.44389,3.78459 3.9195,4.18431 1.56624,1.30958 6.61217,3.79722 12.1948,6.01089 11.87323,4.70729 26.48264,8.11371 44.12148,10.28574 5.52738,0.68054 10.04205,1.12264 20.02822,1.95717 l 9.11485,0.76355 8.18703,-0.68018 c 9.91568,-0.8243 16.04432,-1.42627 21.58433,-2.12477 21.96658,-2.76758 39.06055,-7.39944 52.2192,-14.14743 3.1681,-1.62563 3.72249,-2.10148 7.63383,-6.56991 6.23109,-7.11205 10.10298,-9.99112 16.17053,-12.02239 1.04858,-0.35003 1.93876,-0.60578 1.97978,-0.56768 0.13445,0.13445 -0.96076,3.75981 -1.57484,5.20997 -2.13868,5.06972 -6.28616,8.63052 -12.37191,10.62441 -1.7331,0.56808 -2.67472,1.00736 -3.00589,1.40774 -0.35955,0.43388 -0.27989,1.19333 0.16365,1.55566 0.713,0.57767 1.47639,0.40576 4.09142,-0.9182 4.29638,-2.17594 8.12286,-3.5749 11.43632,-4.1849 2.10618,-0.38692 5.86278,-0.26981 7.54042,0.23748 1.50441,0.45257 3.90458,1.45787 3.90458,1.63111 0,0.20898 -8.006,4.16122 -10.02436,4.94948 -4.97602,1.94381 -7.42773,2.44568 -10.91336,2.22274 -1.31831,-0.0839 -3.99319,-0.14955 -5.94549,-0.14865 -4.8271,0.005 -5.18733,0.0877 -11.81333,2.61818 -12.62938,4.82365 -27.75549,8.36444 -45.23448,10.58362 -7.82924,0.99346 -30.07491,3.16502 -33.53756,3.27526 -1.05316,0.0326 -5.44759,-0.29848 -11.71083,-0.88476 z"
     transform="translate(-233,-247.11)"
     id="path46539" /></g>
</g><g
   transform="translate(250,250)"
   id="K_zGoedPPBE1IV1YSGuR9"
   style="display:inline;fill:#0347b2;fill-opacity:1;stroke:none">
<path
   style="display:inline;opacity:1;fill:#ffffff;fill-opacity:1;fill-rule:nonzero;stroke:none;stroke-width:0.06857143;stroke-linecap:butt;stroke-linejoin:miter;stroke-miterlimit:4;stroke-dasharray:none;stroke-dashoffset:0;stroke-opacity:1"
   d="m 133.1128,109.3776 c 0.18648,-0.18648 99.55539,-50.66388 99.73382,-50.66388 0.21437,0 99.31811,50.34736 99.58882,50.59428 0.0938,0.0847 -43.5625,0.1536 -99.62076,0.1536 -54.88473,0 -99.75131,-0.0375 -99.70481,-0.084 z m 185.03414,-3.53289 c -0.0415,-0.0374 -19.25002,-9.81873 -42.68568,-21.73501 L 232.84991,62.44109 192.86229,82.77787 c -21.99452,11.18465 -41.22649,20.96149 -42.73739,21.72567 l -2.74976,1.38889 85.42307,0.009 c 46.98253,0.005 85.3902,-0.0226 85.34873,-0.06 z"
   transform="translate(-233,-247.11)"
   id="path47927" /><path
   style="display:inline;opacity:1;fill:#ffffff;fill-opacity:1;fill-rule:nonzero;stroke:none;stroke-width:0.06857143;stroke-linecap:butt;stroke-linejoin:miter;stroke-miterlimit:4;stroke-dasharray:none;stroke-dashoffset:0;stroke-opacity:1"
   d="m 302.72302,274.65777 v -10.82496 h 11.27646 11.27646 l 1.01178,-0.74076 c 3.48025,-2.5441 6.62226,-5.53123 8.70454,-8.27097 3.12268,-4.11056 5.46197,-9.05491 6.69199,-14.14412 0.8846,-3.65731 1.00251,-4.9579 1.095,-11.84519 0.0469,-3.5876 0.038,-6.51997 -0.0187,-6.51997 -0.0567,0 -0.49414,0.23831 -0.96953,0.53152 -3.602,2.2174 -8.58296,3.14057 -12.9691,2.40524 -7.74457,-1.29526 -13.3276,-6.25363 -14.75737,-13.10401 -0.32211,-1.55098 -0.34966,-3.10354 -0.51775,-30.02465 -0.19498,-30.91089 -0.14019,-29.51761 -1.18864,-31.31475 -1.47334,-2.52523 -5.14525,-4.44078 -8.50905,-4.44078 h -1.12737 l 0.0464,-8.11783 0.0464,-8.11783 13.35152,-0.0462 13.35153,-0.0462 v 8.16402 8.16402 h -0.76937 c -1.04314,0 -2.78264,0.88508 -3.48534,1.77042 -1.26347,1.59769 -1.89591,3.69018 -2.13891,7.10204 -0.0936,1.31831 -0.24654,13.87781 -0.33591,27.91325 -0.18098,27.74566 -0.21351,26.56817 0.78222,28.24764 0.93285,1.57913 3.1131,3.17267 5.23846,3.83061 5.38224,1.66866 10.75532,-0.13052 12.88457,-4.31537 1.01116,-1.98909 0.98742,-1.58887 1.14118,-18.58926 0.0788,-8.63575 0.14855,-20.77423 0.15399,-26.9718 0.01,-10.50882 -0.01,-11.38001 -0.33495,-12.94551 -0.75024,-3.63522 -2.48911,-5.70812 -5.05658,-6.02076 l -0.8904,-0.10777 v -8.07207 -8.07207 l 13.44014,-0.0462 13.44013,-0.0462 v 8.13665 8.13665 l -1.99512,0.10331 c -4.76796,0.25102 -7.39604,2.11101 -8.11703,5.74655 -0.0931,0.47038 -0.44679,19.3802 -0.78342,42.01995 -0.33956,22.64246 -0.66166,42.20166 -0.71772,43.46869 -0.3815,8.55204 -3.34181,16.42752 -8.48544,22.55543 -0.74539,0.88925 -1.84122,2.06486 -2.43744,2.61831 l -1.08193,1.00229 h 9.41716 9.41716 l -0.0463,10.77898 -0.0462,10.77899 -27.99226,0.0459 -27.99226,0.0459 z"
   transform="translate(-233,-247.11)"
   id="path47923" /><path
   style="display:inline;opacity:1;fill:#ffffff;fill-opacity:1;fill-rule:nonzero;stroke:none;stroke-width:0.06857143;stroke-linecap:butt;stroke-linejoin:miter;stroke-miterlimit:4;stroke-dasharray:none;stroke-dashoffset:0;stroke-opacity:1"
   d="m 248.60207,280.38045 c -6e-5,-2.80567 -0.0518,-7.66118 -0.11652,-10.78838 l -0.11642,-5.68582 1.66322,-0.21985 c 5.95612,-0.79254 10.75106,-4.76181 12.14871,-10.05212 0.25148,-0.95104 0.29814,-6.22154 0.44194,-49.68178 0.10262,-31.32989 0.0981,-49.06069 -0.0138,-49.85985 -0.48416,-3.48998 -2.05942,-5.9923 -4.54322,-7.21391 -2.85228,-1.40333 -6.33282,-0.26171 -8.97955,2.94524 -1.80421,2.18973 -3.36929,5.742 -4.18463,9.51084 -0.45629,2.10622 -0.91309,5.53672 -0.91721,6.8781 -0.005,1.8179 0.005,1.80868 -1.70497,1.80868 h -1.48692 v -18.98543 -18.98543 h 26.70599 26.70599 v 18.98543 18.98543 h -1.57037 -1.57035 l -0.10646,-2.70692 c -0.20575,-5.32154 -1.393,-9.93924 -3.47247,-13.52797 -0.96987,-1.67346 -3.07556,-3.86375 -4.38961,-4.56737 -3.7936,-2.0317 -7.7685,-0.82922 -9.60873,2.90776 -1.24965,2.5402 -1.14189,-1.4961 -1.31471,48.85657 -0.0847,24.98291 -0.13072,47.34126 -0.10172,49.68178 0.0551,4.06333 0.0786,4.3198 0.52168,5.58813 0.25611,0.73174 0.6567,1.66764 0.88986,2.0778 2.20908,3.88248 6.60803,6.76148 11.25329,7.35908 l 1.48709,0.19145 -0.0463,10.75549 -0.0462,10.7555 -18.76538,0.046 -18.76537,0.046 v -5.10255 z"
   transform="translate(-233,-247.11)"
   id="path47921" /><path
   style="display:inline;opacity:1;fill:#ffffff;fill-opacity:1;fill-rule:nonzero;stroke:none;stroke-width:0.06857143;stroke-linecap:butt;stroke-linejoin:miter;stroke-miterlimit:4;stroke-dasharray:none;stroke-dashoffset:0;stroke-opacity:1"
   d="m 179.16324,285.3629 c -0.14962,-0.14965 -0.14975,-5.70824 -6.6e-4,-14.56797 l 0.11682,-6.93858 1.16945,-0.11199 c 5.27957,-0.50733 9.66995,-3.35922 11.74763,-7.62854 1.29499,-2.66113 1.18808,1.1416 1.4217,-50.80422 0.22814,-50.4297 0.25563,-48.43122 -0.68057,-51.02737 -1.64037,-4.55313 -5.83922,-7.45152 -11.35592,-7.83773 -0.76019,-0.052 -1.64446,-0.13544 -1.96145,-0.18256 l -0.57741,-0.0881 v -2.7126 c 0,-1.49164 0.0518,-5.12165 0.11681,-8.06636 l 0.11682,-5.35376 26.45479,0.046 26.4548,0.046 0.0461,18.94258 0.0461,18.94258 h -1.57042 -1.57042 l -0.11116,-2.35248 c -0.32155,-6.87321 -2.38534,-12.2423 -6.02026,-15.67155 -2.39103,-2.25555 -4.9962,-3.40154 -8.12176,-3.5696 -5.76367,-0.31177 -10.69931,3.42065 -11.62616,8.78855 -0.18668,1.08532 -0.26512,10.12161 -0.3821,44.74185 -0.19507,57.02977 -0.20986,52.21618 0.18098,53.48785 1.67318,5.45644 7.05099,9.70739 13.02494,10.29901 l 1.28627,0.12639 v 10.80635 10.80635 h -19.04547 c -10.47545,0 -19.09747,-0.052 -19.16264,-0.11722 z"
   transform="translate(-233,-247.11)"
   id="path47919" /><path
   style="display:inline;opacity:1;fill:#ffffff;fill-opacity:1;fill-rule:nonzero;stroke:none;stroke-width:0.06857143;stroke-linecap:butt;stroke-linejoin:miter;stroke-miterlimit:4;stroke-dasharray:none;stroke-dashoffset:0;stroke-opacity:1"
   d="M 97.59899,274.68272 V 263.8849 l 1.57472,-0.21461 c 6.49223,-0.88614 11.60258,-5.62876 12.17126,-11.29573 0.0567,-0.57761 0.26483,-19.61414 0.45673,-42.30405 0.21454,-25.21992 0.4241,-41.90864 0.53979,-42.94056 0.99699,-8.98065 5.85803,-15.42059 14.80479,-19.6088 1.07244,-0.50294 2.15239,-1.00736 2.39533,-1.12386 0.34872,-0.16706 -2.21294,-0.20078 -11.79944,-0.16346 l -12.24247,0.047 v -8.07207 -8.07207 l 32.5171,-0.046 32.5171,-0.0459 v 8.0485 8.0485 l -1.33236,0.12098 c -2.92675,0.26549 -5.95478,1.42054 -7.86063,2.99656 -1.7566,1.4539 -3.12199,3.65363 -3.80685,6.13272 -0.36855,1.33728 -0.37703,1.68749 -0.49861,24.7778 -0.0693,12.88103 -0.13937,34.4802 -0.15771,47.99811 -0.0365,26.55796 -0.0747,25.30461 0.87156,27.44399 1.83629,4.1521 6.7237,7.5393 11.73922,8.13649 l 1.00139,0.12045 0.0753,10.67198 c 0.042,5.87106 0.0465,10.73231 0.009,10.80636 -0.0372,0.074 -16.47255,0.13435 -36.52077,0.13435 H 97.59905 Z m 40.22134,-11.65968 c 2.60918,-0.53992 4.68732,-1.67375 6.35142,-3.47235 1.22547,-1.32345 1.90552,-2.48309 2.53506,-4.32057 l 0.48525,-1.42065 0.0513,-43.02977 c 0.0331,-28.49109 -0.01,-43.60837 -0.13045,-44.74131 -0.25157,-2.36797 -0.89523,-4.2914 -1.98564,-5.92209 -3.96994,-5.93309 -13.03475,-6.78063 -18.31335,-1.71011 -1.70012,1.63163 -2.84682,3.6866 -3.52228,6.30554 -0.36749,1.42138 -0.37288,1.82659 -0.52582,32.0475 -0.0841,16.83304 -0.13441,36.5577 -0.10764,43.82772 l 0.046,13.22008 0.50245,1.41709 c 0.653,1.8503 1.49668,3.21564 2.76834,4.47842 2.93977,2.92108 7.53588,4.20801 11.84536,3.31806 z"
   transform="translate(-233,-247.11)"
   id="path47917" /><path
   style="display:inline;opacity:1;fill:#ffffff;fill-opacity:1;fill-rule:nonzero;stroke:none;stroke-width:0.06857143;stroke-linecap:butt;stroke-linejoin:miter;stroke-miterlimit:4;stroke-dasharray:none;stroke-dashoffset:0;stroke-opacity:1"
   d="m 222.85475,406.31844 c -22.70851,-9.3764 -55.90115,-21.00779 -93.93632,-32.91826 -1.46349,-0.45732 -2.73484,-0.90014 -2.82328,-0.98372 -0.0935,-0.0885 0.26584,-1.16553 0.86732,-2.59983 2.61043,-6.2159 8.48134,-20.03835 15.13016,-35.63007 3.99393,-9.3675 8.44378,-19.83805 9.88793,-23.26688 l 2.62385,-6.23087 4.99054,-0.11662 c 2.74465,-0.0649 7.58597,-0.20978 10.75589,-0.32225 7.69794,-0.27523 21.51571,-0.27069 25.01952,0.009 10.70346,0.85296 18.12789,2.58706 24.7537,5.78319 4.54736,2.19109 7.42387,4.17158 10.92741,7.51692 l 1.87775,1.79359 1.40659,-1.42198 c 3.14142,-3.18256 6.57994,-5.62931 10.8059,-7.69298 10.20527,-4.98168 22.25531,-6.71533 42.77943,-6.156 4.28739,0.11662 11.23014,0.29869 15.42508,0.40552 4.19787,0.10686 7.67993,0.24624 7.74086,0.30795 0.0609,0.0646 1.47255,3.3501 3.13598,7.30209 3.08071,7.32181 5.42929,12.84809 14.12933,33.24434 6.57948,15.42396 11.26259,26.52965 11.31961,26.85096 0.0371,0.20031 -1.98506,0.90926 -8.4957,2.98283 -39.40451,12.54533 -64.72288,21.47349 -88.65205,31.25864 l -4.92606,2.01368 -4.83248,-0.0148 -4.83248,-0.0148 -5.07554,-2.09678 z m 5.51857,-43.94597 v -41.10603 l -0.84324,-0.78668 c -4.72479,-4.39989 -11.03087,-7.64789 -18.50511,-9.52925 -8.40238,-2.1117 -18.22052,-2.74925 -34.14931,-2.21323 -3.1225,0.10646 -8.26734,0.24311 -11.43495,0.30833 l -5.75529,0.11722 -3.34138,7.89484 c -1.83673,4.34305 -6.25334,14.72185 -9.80979,23.06723 -8.4633,19.85158 -12.4894,29.35788 -12.45099,29.39631 0.0184,0.0187 1.30937,0.16305 2.87013,0.32181 17.65637,1.803 35.94274,6.16914 52.5221,12.5364 13.17865,5.06492 28.26275,12.8065 39.16325,20.10743 0.80644,0.54043 1.52817,0.98287 1.60255,0.98287 0.0744,0 0.13496,-18.49641 0.13496,-41.10602 z m 11.03455,39.89624 c 6.81728,-4.5055 15.11721,-9.21265 22.72266,-12.8892 22.06118,-10.66258 44.7641,-17.07867 69.424,-19.61497 1.07188,-0.11129 1.97565,-0.22781 2.00807,-0.26024 0.0693,-0.0693 -2.66476,-6.53813 -12.47544,-29.54969 -6.99973,-16.41696 -12.18667,-28.64515 -12.76449,-30.09334 l -0.28927,-0.72674 -6.15665,-0.11169 c -3.38747,-0.0608 -8.83154,-0.20435 -12.10214,-0.31622 -6.33315,-0.21825 -15.92711,-0.12539 -19.87443,0.19115 -11.64477,0.93183 -20.22012,3.42515 -26.8744,7.81438 -1.99445,1.31458 -3.50009,2.48463 -4.7537,3.69523 l -0.84324,0.81155 v 41.1291 c 0,22.62015 0.0333,41.12912 0.0754,41.12912 0.0421,0 0.89985,-0.54489 1.90652,-1.21087 z"
   transform="translate(-233,-247.11)"
   id="path47915" /><path
   style="display:inline;opacity:1;fill:#ffffff;fill-opacity:1;fill-rule:nonzero;stroke:none;stroke-width:0.06857143;stroke-linecap:butt;stroke-linejoin:miter;stroke-miterlimit:4;stroke-dasharray:none;stroke-dashoffset:0;stroke-opacity:1"
   d="m 225.21228,435.43313 c -2.52126,-0.10182 -3.28943,-0.18652 -3.41184,-0.38266 -0.0885,-0.13969 -0.16265,-1.71 -0.1632,-3.48978 -0.004,-3.21082 -0.005,-3.23462 -0.40121,-3.31787 -0.40144,-0.0837 -7.88978,-0.63835 -8.57484,-0.63433 -0.33544,6.6e-4 -0.43286,0.30268 -1.06245,3.30469 -0.45165,2.1485 -0.77891,3.33696 -0.94119,3.39797 -0.58272,0.22368 -11.69174,-1.32318 -17.94542,-2.49799 -2.80105,-0.52662 -3.10291,-0.61899 -3.07061,-0.9315 0.36364,-3.58759 0.61966,-6.6726 0.55866,-6.7336 -0.0424,-0.0424 -2.06353,-0.48548 -4.48712,-0.98719 -3.13586,-0.64396 -4.44484,-0.84863 -4.53031,-0.70778 -0.0693,0.11129 -0.59586,1.55262 -1.1699,3.20692 -0.60071,1.72439 -1.14135,3.00649 -1.26756,3.00649 -0.32172,0 -3.6992,-0.92656 -7.76834,-2.12948 -3.151,-0.93213 -11.96754,-3.83545 -12.12576,-3.99367 -0.0329,-0.0329 0.30692,-1.42093 0.75455,-3.08087 0.44763,-1.66288 0.81505,-3.12613 0.81487,-3.25232 -3.3e-4,-0.20585 -8.46339,-3.63942 -8.59343,-3.48537 -0.0279,0.0328 -0.69954,1.25814 -1.49551,2.72163 -0.79303,1.46348 -1.51024,2.76386 -1.59314,2.88973 -0.11221,0.17625 -0.91843,-0.11119 -3.41568,-1.20719 -4.82242,-2.12001 -15.46242,-7.44635 -15.36359,-7.68899 0.0465,-0.11209 0.66184,-1.58429 1.36926,-3.27093 0.70449,-1.68663 1.25309,-3.09407 1.21554,-3.12731 -0.22863,-0.20565 -7.91792,-4.36204 -8.06096,-4.35656 -0.0937,0.005 -1.00596,1.17 -2.02267,2.59095 -1.01671,1.42095 -1.94374,2.6187 -2.05942,2.66135 -0.23222,0.0885 -3.60697,-1.98971 -8.0668,-4.96681 -3.07568,-2.0511 -9.51568,-6.61177 -9.65155,-6.83187 -0.0427,-0.0704 0.59211,-1.30088 1.41598,-2.73531 0.82094,-1.4315 1.49555,-2.67015 1.49555,-2.74932 0,-0.14009 -6.29053,-5.76047 -6.56145,-5.86301 -0.11245,-0.0423 -1.87381,1.47666 -4.65491,4.01249 l -0.48021,0.43828 -2.00372,-1.69188 c -4.29204,-3.62551 -13.80316,-12.51148 -13.80316,-12.89435 0,-0.0648 1.03876,-1.22041 2.30672,-2.56789 1.26796,-1.34749 2.30672,-2.50784 2.30672,-2.5776 0,-0.16345 -5.7698,-5.8711 -5.93687,-5.8711 -0.06971,0 -1.23454,0.91811 -2.58688,2.0409 -1.35527,1.12279 -2.53948,2.0409 -2.6332,2.0409 -0.09372,0 -0.39658,-0.26558 -0.67173,-0.59111 -0.27514,-0.32554 -1.72465,-2.00911 -3.2208,-3.74647 -3.03905,-3.5272 -6.02975,-7.23205 -8.81264,-10.92391 l -1.86019,-2.46973 2.92687,-2.24564 c 1.61154,-1.2348 2.92687,-2.28302 2.92687,-2.32939 0,-0.10696 -4.39841,-6.06776 -4.79063,-6.49579 -0.28034,-0.30678 -0.43367,-0.23818 -3.36434,1.46348 -1.68732,0.98247 -3.09365,1.78444 -3.12194,1.78444 -0.26547,0 -7.03184,-11.10948 -9.6604,-15.86225 -1.56103,-2.82003 -1.63979,-3.01059 -1.33198,-3.23492 0.18113,-0.13092 1.63065,-0.89927 3.22082,-1.70545 1.59311,-0.80619 2.89447,-1.5277 2.89778,-1.59913 0.0042,-0.25611 -4.08183,-8.2945 -4.21283,-8.29032 -0.07391,7.2e-4 -1.56093,0.67967 -3.30777,1.50462 -1.74683,0.82494 -3.23343,1.46359 -3.30388,1.42085 -0.22386,-0.13929 -3.52327,-7.62801 -5.2379,-11.88778 -7.8094,-19.40749 -12.70385,-39.60989 -14.62328,-60.32921 -0.71822,-7.76784 -0.81035,-10.09294 -0.80218,-20.6719 0.0053,-11.11421 0.15343,-14.23663 1.07198,-22.89001 C 22.10735,139.68933 48.6605,89.19286 90.8707,52.75384 122.21444,25.69347 160.96156,7.985 201.50771,2.18751 c 12.14886,-1.7379 21.33833,-2.32027 34.1578,-2.16287 8.076,0.09794 12.37276,0.32582 19.33985,1.02114 33.45378,3.34605 65.91594,14.64639 94.65401,32.94689 20.92795,13.32769 39.97355,30.70589 55.3705,50.52581 12.3857,15.94192 22.76429,34.07889 30.26207,52.87764 12.46588,31.25909 17.43689,64.78407 14.62272,98.65619 -1.83685,22.13103 -7.05946,43.69758 -15.56951,64.32226 -1.38886,3.36509 -4.36223,10.06189 -4.71618,10.62094 -0.12106,0.19095 -0.85203,-0.0877 -3.46273,-1.31478 -1.96681,-0.92676 -3.37343,-1.49143 -3.46309,-1.39405 -0.19115,0.20092 -3.91462,8.02999 -3.91462,8.23043 0,0.0796 1.43929,0.8763 3.19647,1.77051 l 3.19648,1.62558 -0.42857,0.7453 c -0.23688,0.40993 -1.00617,1.78408 -1.71052,3.05204 -1.85855,3.34074 -5.3729,9.15176 -7.48388,12.3686 l -1.82733,2.78727 -2.3063,-1.33764 c -1.26773,-0.73614 -2.63794,-1.53237 -3.04684,-1.76648 l -0.74052,-0.42885 -2.49804,3.36389 c -1.37451,1.84985 -2.49365,3.4255 -2.48893,3.50405 0.005,0.0786 0.85753,0.77873 1.89614,1.56082 1.03861,0.78209 2.3065,1.74329 2.81917,2.13959 l 0.93212,0.72189 -1.87884,2.47384 c -3.38333,4.45009 -6.91078,8.73333 -11.11919,13.50562 l -1.59375,1.8078 -0.63316,-0.50264 c -0.34882,-0.27529 -1.46815,-1.18818 -2.49227,-2.02702 l -1.85913,-1.52435 -0.80202,0.7499 c -0.4423,0.41083 -1.81708,1.74289 -3.05638,2.95849 l -2.25143,2.20861 2.32963,2.46499 2.32962,2.465 -2.91656,2.79519 c -3.75208,3.59722 -6.5421,6.13694 -9.74814,8.8783 -1.41607,1.21136 -2.74898,2.35792 -2.96333,2.54887 l -0.39079,0.34559 -2.39911,-2.1631 -2.39911,-2.16309 -3.35506,2.96385 -3.35506,2.96385 1.39714,2.43701 c 0.76844,1.34137 1.39715,2.51565 1.39715,2.60951 0,0.49434 -16.98526,11.94324 -17.71791,11.94324 -0.0975,0 -0.98749,-1.11822 -1.97638,-2.48394 -0.99183,-1.36573 -1.8453,-2.48394 -1.90051,-2.48394 -0.24151,0 -7.90296,4.33882 -7.96873,4.51172 -0.0416,0.10706 0.44677,1.42097 1.08136,2.91782 0.63459,1.49977 1.15592,2.81901 1.15592,2.93194 0,0.21501 -7.99218,4.28707 -11.88804,6.05393 -2.96418,1.34629 -6.60727,2.92151 -6.75194,2.92151 -0.0649,0 -0.68446,-1.05789 -1.37512,-2.35249 -0.69359,-1.29167 -1.36149,-2.48364 -1.49072,-2.64622 -0.20988,-0.26628 -0.61445,-0.14432 -4.46437,1.36516 -2.3294,0.91297 -4.2538,1.68268 -4.27709,1.71437 -0.0237,0.0288 0.31151,1.36049 0.74106,2.95482 0.42955,1.59433 0.75901,2.92597 0.72692,2.95463 -0.15872,0.15329 -9.55279,3.20624 -12.47882,4.05814 -4.44142,1.29104 -7.55391,2.11112 -7.65098,2.01698 -0.0421,-0.0421 -0.52707,-1.37083 -1.07729,-2.95457 -0.78702,-2.25966 -1.06223,-2.86144 -1.28182,-2.80495 -0.15409,0.0413 -2.17664,0.46213 -4.49626,0.941 l -4.21325,0.86694 v 0.55869 c 0,0.30729 0.12499,1.73421 0.2749,3.17389 0.14985,1.43967 0.24674,2.64623 0.21048,2.67961 -0.0979,0.0979 -6.45447,1.23945 -9.71227,1.74323 -2.43682,0.37739 -5.45667,0.77748 -10.77394,1.42204 -0.87157,0.10676 -0.75531,0.36812 -1.5653,-3.5374 -0.26154,-1.26796 -0.53536,-2.36783 -0.60516,-2.44575 -0.11099,-0.12035 -5.55408,0.21401 -8.30492,0.50775 l -0.93184,0.0985 -7.3e-4,2.42757 c -6.5e-4,1.33355 -0.0508,2.71705 -0.10775,3.07153 -0.0941,0.57768 -0.17622,0.65688 -0.75097,0.75054 -1.05782,0.17262 -14.22719,0.26951 -17.7398,0.12962 z m 16.29252,-16.5179 c 4.73941,-0.21875 9.95829,-0.61906 14.01755,-1.07226 38.28722,-4.29222 74.30388,-19.34805 104.43127,-43.65136 22.81059,-18.40223 41.52074,-41.80003 54.36442,-67.98457 5.6662,-11.54836 9.45973,-21.29596 12.88005,-33.08247 3.98871,-13.74706 6.36493,-27.24762 7.54981,-42.91403 0.30315,-4.00725 0.41544,-18.26193 0.18188,-22.97862 C 432.58641,160.08517 414.7844,116.75221 383.27427,81.5097 380.11508,77.97713 371.44215,69.30969 368.01714,66.26584 334.47527,36.44223 294.39371,19.14731 249.39673,15.07703 238.41784,14.08436 225.8916,14.05181 214.79589,14.98809 174.27708,18.40419 135.90129,34.21452 104.15888,60.56306 97.87309,65.78165 89.19048,74.05325 83.85921,79.8982 68.05277,97.233 55.64323,116.45219 46.67166,137.50058 c -15.20084,35.6537 -19.80512,75.25927 -13.21615,113.68154 5.14493,30.00644 17.0877,58.54881 34.89875,83.41287 24.58619,34.32116 59.70317,60.38899 99.42111,73.80302 18.8213,6.35646 36.98708,9.69363 57.57946,10.57889 3.08037,0.13122 12.75408,0.0974 16.14706,-0.0603 z"
   transform="translate(-233,-247.11)"
   id="path47913" /><path
   style="display:inline;opacity:1;fill:#ffffff;fill-opacity:1;fill-rule:nonzero;stroke:none;stroke-width:0.06857143;stroke-linecap:butt;stroke-linejoin:miter;stroke-miterlimit:4;stroke-dasharray:none;stroke-dashoffset:0;stroke-opacity:1"
   d="m 221.81051,493.33631 c -159.207007,-340.34135 -79.6035,-170.17067 0,0 z"
   transform="translate(-233,-247.11)"
   id="path46235" />
</g>
</svg>
