<?xml version="1.0" encoding="UTF-8" standalone="no"?>
<!-- Created with Inkscape (http://www.inkscape.org/) -->

<svg
   width="240"
   height="240"
   viewBox="0 0 63.499999 63.5"
   version="1.1"
   id="svg5"
   xml:space="preserve"
   inkscape:version="1.2.2 (b0a8486541, 2022-12-01)"
   sodipodi:docname="ticketQR.svg"
   xmlns:inkscape="http://www.inkscape.org/namespaces/inkscape"
   xmlns:sodipodi="http://sodipodi.sourceforge.net/DTD/sodipodi-0.dtd"
   xmlns="http://www.w3.org/2000/svg"
   xmlns:svg="http://www.w3.org/2000/svg"><sodipodi:namedview
     id="namedview7"
     pagecolor="#ffffff"
     bordercolor="#000000"
     borderopacity="0.25"
     inkscape:showpageshadow="2"
     inkscape:pageopacity="0.0"
     inkscape:pagecheckerboard="0"
     inkscape:deskcolor="#d1d1d1"
     inkscape:document-units="mm"
     showgrid="false"
     inkscape:zoom="2.1147643"
     inkscape:cx="88.662362"
     inkscape:cy="151.3171"
     inkscape:window-width="1920"
     inkscape:window-height="1007"
     inkscape:window-x="0"
     inkscape:window-y="0"
     inkscape:window-maximized="1"
     inkscape:current-layer="layer1" /><defs
     id="defs2" /><g
     inkscape:label="Layer 1"
     inkscape:groupmode="layer"
     id="layer1"><path
       style="fill:#5a87e9;fill-opacity:1;stroke-width:0.192424"
       d="M 1.7499999e-7,56.765152 V 50.030303 H 6.7348486 13.469696 V 56.765152 63.5 H 6.7348486 1.7499999e-7 Z M 11.545454,56.765152 V 51.954545 H 6.7348486 1.924243 v 4.810607 4.810606 h 4.8106056 4.8106054 z m -7.6969689,0 V 53.878788 H 6.7348486 9.621212 v 2.886364 2.886363 H 6.7348486 3.8484851 Z m 11.5454539,5.772727 v -0.962121 h 1.924242 1.924242 V 62.537879 63.5 h -1.924242 -1.924242 z m 11.545454,0 v -0.962121 h 0.962121 0.962122 v -0.962121 -0.962122 h -1.924243 -1.924242 v 0.962122 0.962121 H 24.053029 23.090908 V 59.651515 57.727273 H 22.128787 21.166666 V 56.765152 55.80303 h 0.962121 0.962121 v 0.962122 0.962121 h 0.962121 0.962122 V 55.80303 53.878788 h 0.962121 0.962121 v -0.962121 -0.962122 h 0.962121 0.962122 v 0.962122 0.962121 h -0.962122 -0.962121 v 1.924242 1.924243 h 0.962121 0.962122 v 0.962121 0.962121 h 1.924241 1.924243 V 56.765152 53.878788 H 31.749998 30.787877 V 51.954545 50.030303 H 28.863636 26.939393 V 47.14394 44.257576 h 0.962121 0.962122 v 0.962121 0.962121 h 0.96212 0.962121 v -1.924242 -1.924243 h -0.962121 -0.96212 v -0.962121 -0.962121 h 0.96212 0.962121 v 0.962121 0.962121 h 0.962121 0.962122 v -0.962121 -0.962121 h 0.96212 0.962122 V 39.44697 38.484848 h 0.962121 0.962121 v 2.886364 2.886364 h 0.962121 0.962121 v -0.962121 -0.962122 h 0.962122 0.962121 v -1.924242 -1.924243 h -0.962121 -0.962122 v -0.96212 -0.962122 h 0.962122 0.962121 v -0.962121 -0.962122 h -0.962121 -0.962122 v -0.96212 -0.962122 h -1.924242 -1.924242 v 1.924242 1.924243 H 33.67424 32.71212 v -1.924243 -1.924242 h 0.96212 0.962122 V 31.75 30.787879 h 0.962121 0.962121 v -0.962121 -0.962122 h 1.924242 1.924243 v -1.924242 -1.924243 h 0.962121 0.962121 v -2.886363 -2.886364 h 0.962122 0.96212 v -0.962121 -0.962121 h -1.924242 -1.924242 v 0.962121 0.962121 h -2.886364 -2.886363 v 0.962122 0.962121 h 2.886363 2.886364 v 0.962121 0.962121 h -1.924243 -1.924242 v 1.924242 1.924243 H 35.598483 34.636362 V 24.053031 21.166667 H 32.71212 30.787877 v 0.962121 0.962121 h -2.886363 -2.886363 v 0.962122 0.96212 h 0.962121 0.962121 v 2.886364 2.886364 H 25.977272 25.015151 V 31.75 32.712121 h 0.962121 0.962121 v 0.962122 0.96212 h -0.962121 -0.962121 v 1.924243 1.924242 h 0.962121 0.962121 v -0.96212 -0.962122 h 0.962121 0.962122 v -2.886363 -2.886364 h 0.96212 0.962121 v -0.962121 -0.962122 h -0.962121 -0.96212 v -0.962121 -0.962121 h 0.96212 0.962121 v -0.962121 -0.962122 h 0.962121 0.962122 v 2.886364 2.886364 h -0.962122 -0.962121 v 3.848484 3.848485 h -1.924241 -1.924243 v 1.924243 1.924242 h -0.962121 -0.962121 v -0.962121 -0.962121 h -0.962122 -0.962121 v 2.886364 2.886363 h -4.810605 -4.810607 v 0.962122 0.96212 H 12.507575 11.545454 V 47.14394 46.181818 H 9.621212 7.6969692 v 0.962122 0.96212 H 4.8106058 1.924243 V 47.14394 46.181818 H 0.96212152 1.7499999e-7 V 44.257576 42.333333 H 1.924243 3.8484851 v 0.962122 0.962121 H 4.8106058 5.7727272 V 41.371212 38.484848 H 2.8863637 1.7499999e-7 v -0.96212 -0.962122 H 0.96212152 1.924243 V 34.636363 32.712121 H 0.96212152 1.7499999e-7 V 30.787879 28.863636 H 1.924243 3.8484851 v -0.962121 -0.962121 h 0.9621207 0.9621214 v -0.962121 -0.962122 h 1.924242 1.9242428 v 1.924243 1.924242 h 0.962121 0.962121 v -0.962121 -0.962121 h 0.962121 0.962121 v -0.962121 -0.962122 h -0.962121 -0.962121 v -0.96212 -0.962122 h 0.962121 0.962121 v -0.962121 -0.962121 h -0.962121 -0.962121 v -0.962121 -0.962122 h 1.924242 1.924243 v 0.962122 0.962121 h 0.962121 0.962121 v 0.962121 0.962121 h -1.924242 -1.924243 v 0.962122 0.96212 h 0.962122 0.962121 v 0.962122 0.962121 h -0.962121 -0.962122 v 0.962121 0.962121 h -0.962121 -0.962121 v 0.962122 0.962121 h 1.924242 1.924243 v -0.962121 -0.962122 h 0.962121 0.962121 v 1.924243 1.924242 H 13.469696 9.621212 v 0.962122 0.96212 H 8.6590906 7.6969692 v 0.962122 0.962121 H 6.7348486 5.7727272 v 0.962122 0.96212 h 0.9621214 0.9621206 v 0.962122 0.962121 H 8.6590906 9.621212 v 0.962121 0.962121 h 1.924242 1.924242 v 0.962122 0.962121 h 2.886364 2.886363 V 42.333333 40.409091 H 15.393939 11.545454 V 39.44697 38.484848 H 10.583333 9.621212 v -0.96212 -0.962122 h 0.962121 0.962121 v -0.962121 -0.962122 h 0.962121 0.962121 v 0.962122 0.962121 h -0.962121 -0.962121 v 0.962122 0.96212 h 1.924242 1.924243 v -1.924242 -1.924243 h 1.924242 1.924242 V 31.75 28.863636 h 1.924243 1.924242 v 0.962122 0.962121 h 0.962121 0.962122 v -2.886364 -2.886364 h -1.924243 -1.924242 v 0.962122 0.962121 h -1.924243 -1.924242 v -0.962121 -0.962122 h 0.962122 0.96212 v -3.848484 -3.848485 h -0.96212 -0.962122 V 16.356061 15.393939 H 16.35606 15.393939 v 0.962122 0.962121 H 12.507575 9.621212 v -0.962121 -0.962122 h 2.886363 2.886364 v -1.924242 -1.924243 h 0.962121 0.962121 v -0.96212 -0.9621221 h 1.924242 1.924243 V 8.6590905 7.6969698 H 20.204545 19.242423 V 5.7727273 3.8484849 H 17.318181 15.393939 V 1.9242425 1.1999999e-7 h 0.962121 0.962121 V 0.96212128 1.9242425 h 1.924242 1.924243 v 0.9621212 0.9621212 h 0.962121 0.962121 V 2.8863637 1.9242425 h 0.962121 0.962122 V 0.96212128 1.1999999e-7 h 1.924242 1.924243 V 0.96212128 1.9242425 h -0.962122 -0.962121 v 0.9621212 0.9621212 h -1.924242 -1.924243 v 0.9621212 0.9621212 h -0.962121 -0.962121 v 0.9621213 0.9621212 h 0.962121 0.962121 v 0.9621207 0.9621214 h 1.924243 1.924242 V 7.6969698 5.7727273 h 0.962121 0.962122 V 4.8106061 3.8484849 h 0.96212 0.962121 v 0.9621212 0.9621212 h 0.962121 0.962122 V 4.8106061 3.8484849 h 0.96212 0.962122 V 2.8863637 1.9242425 H 32.71212 30.787877 V 0.96212128 1.1999999e-7 h 3.848485 3.848484 V 0.96212128 1.9242425 h 0.962122 0.962121 V 0.96212128 1.1999999e-7 h 3.848484 3.848485 V 0.96212128 1.9242425 h -0.962121 -0.962122 v 0.9621212 0.9621212 h -0.96212 -0.962122 V 2.8863637 1.9242425 h -0.96212 -0.962122 V 2.8863637 3.8484849 H 40.409089 38.484846 V 2.8863637 1.9242425 H 37.522725 36.560604 V 2.8863637 3.8484849 H 35.598483 34.636362 V 4.8106061 5.7727273 H 33.67424 32.71212 V 6.7348486 7.6969698 H 31.749998 30.787877 V 6.7348486 5.7727273 h -0.962121 -0.96212 v 5.7727267 5.772728 h -0.962122 -0.962121 v -2.886363 -2.886365 h -0.962121 -0.962121 v 0.962122 0.962121 h -0.962122 -0.962121 v 1.924242 1.924243 h 0.962121 0.962122 v 0.962121 0.962121 h -0.962122 -0.962121 v 0.962122 0.962121 h 1.924243 1.924242 v -0.962121 -0.962122 h 0.962121 0.962122 v 0.962122 0.962121 h 0.96212 0.962121 v -2.886364 -2.886364 h 0.962121 0.962122 v -0.96212 -0.962122 h -0.962122 -0.962121 v -0.962121 -0.962122 h 0.962121 0.962122 v -0.96212 -0.9621221 h 2.886363 2.886363 V 7.6969698 5.7727273 h 0.962122 0.962121 v 4.8106067 4.810605 h 2.886364 2.886362 V 11.545454 7.6969698 H 44.257573 42.333331 V 6.7348486 5.7727273 h 2.886364 2.886363 v 5.7727267 5.772728 h -0.962121 -0.962122 v 0.962121 0.962121 h 1.924243 1.924242 v -1.924242 -1.924243 h 0.962122 0.96212 v 0.962122 0.962121 h 0.962122 0.962121 v 0.962121 0.962121 h 0.962121 0.962121 v -1.924242 -1.924243 h 0.962121 0.962122 v 0.962122 0.962121 h 0.962119 0.962124 V 16.356061 15.393939 H 61.575753 63.5 v 2.886364 2.886364 h -0.962123 -0.962124 v 2.886364 2.886363 h -0.962116 -0.962124 v 2.886364 2.886363 H 61.575753 63.5 v 0.962122 0.96212 h -0.962123 -0.962124 v 0.962122 0.962121 h -1.92424 -1.924243 v -0.962121 -0.962122 h -0.962122 -0.962121 v 1.924243 1.924242 h 1.924243 1.924243 v 1.924243 1.924242 h 0.962124 0.962116 V 40.409091 38.484848 H 62.537877 63.5 v 3.848485 3.848485 h -1.924247 -1.92424 V 44.257576 42.333333 H 58.689389 57.72727 v 1.924243 1.924242 h -0.962122 -0.962121 v 0.962122 0.96212 h 0.962121 0.962122 v 0.962122 0.962121 h -0.962122 -0.962121 v 0.962121 0.962121 h 2.886362 2.886364 v 0.962122 0.962121 H 62.537877 63.5 v 1.924242 1.924243 H 62.537877 61.575753 V 56.765152 55.80303 h -1.92424 -1.924243 v 0.962122 0.962121 h 0.962119 0.962124 v 0.962121 0.962121 H 57.72727 55.803027 V 61.575758 63.5 H 54.840906 53.878785 V 62.537879 61.575758 H 51.954542 50.0303 V 62.537879 63.5 H 49.068179 48.106058 V 62.537879 61.575758 H 47.143937 46.181815 V 62.537879 63.5 h -0.96212 -0.962122 v -0.962121 -0.962121 h -0.96212 -0.962122 V 62.537879 63.5 H 40.409089 38.484846 V 62.537879 61.575758 H 37.522725 36.560604 V 62.537879 63.5 h -4.810606 -4.810605 z m 15.393938,-1.924242 v -0.962122 h 3.848484 3.848485 v -0.962121 -0.962121 h 0.962122 0.96212 V 56.765152 55.80303 H 50.0303 48.106058 v 0.962122 0.962121 h -2.886363 -2.886364 v 0.962121 0.962121 H 41.37121 40.409089 V 58.689394 57.727273 H 39.446968 38.484846 V 56.765152 55.80303 h 0.962122 0.962121 v -0.962121 -0.962121 h -0.962121 -0.962122 v -0.962121 -0.962122 h 2.886364 2.886363 V 50.030303 48.10606 h 0.962122 0.96212 v -1.924242 -1.924242 h -2.886362 -2.886364 v 0.962121 0.962121 h -1.924243 -1.924242 v 0.962122 0.96212 h -0.962121 -0.962121 v 0.962122 0.962121 H 33.67424 32.71212 v 1.924242 1.924243 h 0.96212 0.962122 v 0.962121 0.962121 h 0.962121 0.962121 v 0.962122 0.962121 h -0.962121 -0.962121 v 0.962121 0.962121 h 1.924242 1.924242 v 0.962122 0.962121 h 1.924243 1.924242 z M 36.560604,50.030303 V 48.10606 h 0.962121 0.962121 v 1.924243 1.924242 h -0.962121 -0.962121 z m 5.772727,-2.886363 v -0.962122 h 0.962122 0.96212 v 0.962122 0.96212 h -0.96212 -0.962122 z M 55.803027,57.727273 V 55.80303 h 0.962121 0.962122 v -0.962121 -0.962121 h -0.962122 -0.962121 v 0.962121 0.962121 h -0.962121 -0.962121 v 1.924243 1.924242 h 0.962121 0.962121 z M 53.878785,50.992424 V 48.10606 h -2.886363 -2.886364 v 2.886364 2.886364 h 2.886364 2.886363 z m -3.848485,0 v -0.962121 h 0.962122 0.96212 v 0.962121 0.962121 H 50.992422 50.0303 Z M 3.8484851,45.219697 V 44.257576 H 2.8863637 1.924243 v 0.962121 0.962121 h 0.9621207 0.9621214 z m 3.8484841,0 V 44.257576 H 8.6590906 9.621212 V 43.295455 42.333333 H 8.6590906 7.6969692 v 0.962122 0.962121 H 6.7348486 5.7727272 v 0.962121 0.962121 h 0.9621214 0.9621206 z m 5.7727268,0 v -0.962121 h -0.962121 -0.962121 v 0.962121 0.962121 h 0.962121 0.962121 z M 34.636362,44.257576 V 42.333333 H 33.67424 32.71212 v 1.924243 1.924242 h 0.96212 0.962122 z m 17.31818,0 v -1.924243 h 0.962122 0.962121 v 1.924243 1.924242 h 0.962121 0.962121 v -3.848485 -3.848485 h -0.962121 -0.962121 v -0.96212 -0.962122 h -0.962121 -0.962122 v -0.962121 -0.962122 h 0.962122 0.962121 v -1.924242 -1.924242 h 0.962121 0.962121 V 31.75 32.712121 h 0.962121 0.962122 v 0.962122 0.96212 h 0.962119 0.962124 v -0.96212 -0.962122 H 58.689389 57.72727 V 31.75 30.787879 h -0.962122 -0.962121 v -0.962121 -0.962122 h -0.962121 -0.962121 v -0.962121 -0.962121 h 1.924242 1.924243 v -0.962121 -0.962122 h 0.962119 0.962124 v -1.924242 -1.924242 h 0.962124 0.962116 v -1.924243 -1.924242 h -0.962116 -0.962124 v 0.962121 0.962121 H 58.689389 57.72727 v 2.886364 2.886363 h -1.924243 -1.924242 v 0.962122 0.962121 H 52.916664 51.954542 V 23.090909 19.242424 H 50.992422 50.0303 v 2.886364 2.886363 h -1.924242 -1.924243 v -0.96212 -0.962122 h 0.962122 0.962121 v -0.962121 -0.962121 h -0.962121 -0.962122 v 0.962121 0.962121 h -0.96212 -0.962122 v 0.962122 0.96212 h -0.96212 -0.962122 v 2.886364 2.886364 h 0.962122 0.96212 v -0.962121 -0.962122 h 0.962122 0.96212 v -0.962121 -0.962121 h 0.962122 0.962121 v 0.962121 0.962121 h 0.962121 0.962121 v -0.962121 -0.962121 h 0.962122 0.96212 v 0.962121 0.962121 h 0.962122 0.962121 v 0.962122 0.962121 h -0.962121 -0.962122 v 1.924242 1.924242 h -4.810605 -4.810606 v 0.962122 0.962121 H 41.37121 40.409089 v 0.962122 0.96212 h 0.962121 0.962121 v 1.924243 1.924242 h 0.962122 0.96212 v -1.924242 -1.924243 h -0.96212 -0.962122 v -0.96212 -0.962122 h 1.924242 1.924242 v 0.962122 0.96212 h 0.962122 0.962121 v 0.962122 0.962121 h -0.962121 -0.962122 v 0.962121 0.962121 h 0.962122 0.962121 v -0.962121 -0.962121 h 1.924242 1.924242 v 0.962121 0.962121 H 50.992422 50.0303 v 0.962122 0.962121 h -0.962121 -0.962121 v 0.962121 0.962121 h 1.924242 1.924242 z m 0,-4.810606 V 38.484848 H 50.0303 48.106058 v -0.96212 -0.962122 h 1.924242 1.924242 v 0.962122 0.96212 h 0.962122 0.962121 v 0.962122 0.962121 h -0.962121 -0.962122 z m -28.863634,0 v -0.962122 h -1.924242 -1.924243 v 0.962122 0.962121 h 1.924243 1.924242 z M 5.7727272,33.674243 V 32.712121 H 4.8106058 3.8484851 V 31.75 30.787879 H 4.8106058 5.7727272 V 29.825758 28.863636 H 6.7348486 7.6969692 V 27.901515 26.939394 H 6.7348486 5.7727272 v 0.962121 0.962121 H 4.8106058 3.8484851 v 0.962122 0.962121 H 2.8863637 1.924243 V 31.75 32.712121 h 0.9621207 0.9621214 v 0.962122 0.96212 H 4.8106058 5.7727272 Z M 23.090908,31.75 V 30.787879 H 22.128787 21.166666 V 31.75 32.712121 h 0.962121 0.962121 z m 17.318181,0 V 30.787879 H 39.446968 38.484846 V 31.75 32.712121 h 0.962122 0.962121 z m 15.393938,-9.621212 v -0.962121 h -0.962121 -0.962121 v 0.962121 0.962121 h 0.962121 0.962121 z M 34.636362,18.280303 V 17.318182 H 33.67424 32.71212 v 0.962121 0.962121 h 0.96212 0.962122 z m 5.772727,-1.924242 v -0.962122 h -0.962121 -0.962122 v -1.924242 -1.924243 h -0.962121 -0.962121 v 0.962122 0.962121 H 35.598483 34.636362 V 12.507576 11.545454 H 33.67424 32.71212 v 0.962122 0.962121 h 0.96212 0.962122 v 0.962122 0.96212 h 1.924242 1.924242 v 0.962122 0.962121 h 0.962122 0.962121 z M 19.242423,12.507576 v -0.962122 h -0.96212 -0.962122 v 0.962122 0.962121 h 0.962122 0.96212 z m 3.848485,0 v -0.962122 h -0.962121 -0.962121 v 0.962122 0.962121 h 0.962121 0.962121 z M 57.72727,62.537879 v -0.962121 h 0.962119 0.962124 V 62.537879 63.5 H 58.689389 57.72727 Z m 3.848483,-1.924242 V 59.651515 H 62.537877 63.5 v 0.962122 0.962121 H 62.537877 61.575753 Z M 15.393939,57.727273 V 55.80303 h 1.924242 1.924242 v 1.924243 1.924242 h -1.924242 -1.924242 z m 0,-6.734849 V 48.10606 h 0.962121 0.962121 v 2.886364 2.886364 H 16.35606 15.393939 Z m 3.848484,0 v -0.962121 h 0.962122 0.962121 V 49.068182 48.10606 h 0.962121 0.962121 v 1.924243 1.924242 H 21.166666 19.242423 Z M 1.924243,24.053031 V 23.090909 H 0.96212152 1.7499999e-7 V 22.128788 21.166667 H 0.96212152 1.924243 v 0.962121 0.962121 h 0.9621207 0.9621214 v -0.962121 -0.962121 h 1.9242421 1.924242 V 20.204546 19.242424 H 3.8484851 1.7499999e-7 V 17.318182 15.393939 H 0.96212152 1.924243 v 0.962122 0.962121 h 0.9621207 0.9621214 v -0.962121 -0.962122 h 1.9242421 1.924242 v 1.924243 1.924242 H 8.6590906 9.621212 v 1.924243 1.924242 H 6.7348486 3.8484851 v 0.962122 0.96212 H 2.8863637 1.924243 Z M 1.7499999e-7,6.7348486 V 1.1999999e-7 H 6.7348486 13.469696 V 6.7348486 13.469697 H 6.7348486 1.7499999e-7 Z M 11.545454,6.7348486 V 1.9242425 H 6.7348486 1.924243 v 4.8106061 4.8106054 h 4.8106056 4.8106054 z m -7.6969689,0 V 3.8484849 H 6.7348486 9.621212 V 6.7348486 9.6212119 H 6.7348486 3.8484851 Z M 42.333331,12.507576 v -0.962122 h 0.962122 0.96212 v 0.962122 0.962121 h -0.96212 -0.962122 z M 50.0303,6.7348486 V 1.1999999e-7 H 56.765148 63.5 V 6.7348486 13.469697 H 56.765148 50.0303 Z m 11.545453,0 V 1.9242425 h -4.810605 -4.810606 v 4.8106061 4.8106054 h 4.810606 4.810605 z m -7.696968,0 V 3.8484849 h 2.886363 2.886365 v 2.8863637 2.8863633 h -2.886365 -2.886363 z m -38.484846,0 V 5.7727273 h 0.962121 0.962121 V 6.7348486 7.6969698 H 16.35606 15.393939 Z"
       id="path125" /></g></svg>
